<?xml version="1.0" encoding="UTF-8" standalone="no"?><!DOCTYPE svg PUBLIC "-//W3C//DTD SVG 1.1//EN" "http://www.w3.org/Graphics/SVG/1.1/DTD/svg11.dtd"><svg width="100%" height="100%" viewBox="0 0 855 217" version="1.1" xmlns="http://www.w3.org/2000/svg" xmlns:xlink="http://www.w3.org/1999/xlink" xml:space="preserve" xmlns:serif="http://www.serif.com/" style="fill-rule:evenodd;clip-rule:evenodd;stroke-linejoin:round;stroke-miterlimit:2;"><g><path d="M216.004,193.088l-45.458,-0l-13.908,-33.546l-75.763,-0l-12.667,33.546l-44.712,-0l68.308,-169.413l48.933,0l75.267,169.413Zm-99.112,-128.93l-24.838,65.825l52.163,0l-27.325,-65.825Z" style="fill-rule:nonzero;"/><path d="M381.133,23.675l36.763,0l-0,169.413l-42.229,-0l-0,-105.821l-45.704,53.154l-6.459,-0l-45.704,-53.154l-0,105.821l-42.229,-0l-0,-169.413l36.762,0l54.4,62.846l54.4,-62.846Z" style="fill-rule:nonzero;"/><path d="M524.904,23.675c61.85,0 93.642,38.496 93.642,84.95c-0,48.683 -30.796,84.463 -98.363,84.463l-70.046,-0l0,-169.413l74.767,0Zm-32.537,138.363l27.571,-0c42.47,-0 55.141,-28.817 55.141,-53.663c0,-29.062 -15.65,-53.65 -55.641,-53.65l-27.071,0l-0,107.313Z" style="fill-rule:nonzero;"/><path d="M789.925,63.846l-87.358,-0l-53.255,-53.263l193.859,0l-0,193.867l-53.246,-53.254l0,-87.35Z" style="fill-rule:nonzero;"/><path d="M702.504,151.258l0,-76.741l-54.825,54.82l0,76.746l76.729,0l54.821,-54.825l-76.725,0Z" style="fill-rule:nonzero;"/></g></svg>