<?xml version="1.0" encoding="UTF-8" standalone="no"?>
<!DOCTYPE svg PUBLIC "-//W3C//DTD SVG 1.1//EN" "http://www.w3.org/Graphics/SVG/1.1/DTD/svg11.dtd">
<svg version="1.1" xmlns="http://www.w3.org/2000/svg" xmlns:xl="http://www.w3.org/1999/xlink" xmlns:dc="http://purl.org/dc/elements/1.1/" viewBox="138.55469 201.23438 348.44 300" width="348.44" height="300">
  <defs/>
  <g id="Canvas_1" stroke-dasharray="none" stroke-opacity="1" fill-opacity="1" stroke="none" fill="none">
    <title>Canvas 1</title>
    <g id="Canvas_1_Layer_1">
      <title>Layer 1</title>
      <g id="Group_2">
        <title>Canvas_1</title>
        <g id="Group_3">
          <title>Canvas_1_Layer_1</title>
          <g id="Group_4">
            <title>Group_21</title>
            <g id="Group_25">
              <title>Graphic_12</title>
              <g id="Graphic_26">
                <path d="M 551.9075 362.14843 C 551.9075 494.21916 444.8454 601.28125 312.7747 601.28125 C 180.704 601.28125 73.64189 494.21916 73.64189 362.14843 C 73.64189 230.07772 180.704 123.01563 312.7747 123.01563 C 444.8454 123.01563 551.9075 230.07772 551.9075 362.14843 Z M 317.52386 446.10984 L 227.61915 446.10984 C 225.43673 446.10984 220.24834 432.1643 205.79496 438.01156 C 185.85121 446.0824 201.1007 477.5696 221.04444 465.61436 C 224.76416 463.39076 225.75243 459.0671 228.97802 458.44944 C 258.2691 456.1572 292.25446 461.5652 320.9828 458.44944 C 324.89468 458.02393 327.85947 457.02194 329.08108 452.90417 C 330.75564 447.304 330.7419 417.6423 329.79482 411.16365 C 323.24757 366.29365 280.71097 349.9598 240.13718 355.65607 C 221.017 358.34635 191.12196 373.44485 175.4607 371.96245 C 160.91122 370.58986 144.54994 353.1305 139.0733 340.39286 C 134.40649 336.8653 127.58471 360.58367 127.09058 363.38376 C 117.85304 415.103 150.85013 479.91676 190.6141 511.9256 C 244.4883 555.29945 333.36356 570.1509 393.74384 532.5831 C 454.26137 494.9329 461.8106 419.8384 414.95037 367.19956 C 405.8501 356.97376 373.5942 333.70834 371.3706 322.91978 C 368.65287 309.70173 380.81403 305.85847 388.50054 298.04843 C 407.6482 303.14074 428.55274 310.52528 448.6612 310.2782 C 454.87904 310.19586 482.3034 307.36832 480.25825 297.719 C 479.119 292.37963 463.3891 287.39712 457.9811 284.34997 C 446.6984 277.98115 432.83523 269.97894 423.19964 261.4826 C 409.26784 249.19792 414.1268 249.17046 410.4757 233.0288 C 394.3066 161.53053 273.8892 160.95404 266.75172 247.77042 C 261.64568 309.9076 300.28412 330.1808 329.05363 374.8449 C 333.30866 381.43333 337.4676 393.10035 341.61283 397.97305 C 347.5836 404.97326 362.58602 409.1871 371.0549 416.57166 C 395.39095 437.7782 400.48326 469.78704 380.416 495.96235 C 350.3425 535.1773 288.57592 534.0243 244.83144 524.2652 C 240.31562 510.85496 255.5651 510.5667 256.85534 499.94286 C 258.96913 482.6482 235.8547 474.35776 228.60742 489.6347 C 222.0327 503.4979 236.9665 506.8607 233.76836 520.2023 C 195.08875 503.70376 160.70533 471.942 173.00376 425.7955 C 185.30217 379.64896 255.07097 356.6855 295.43887 380.9941 C 321.42202 396.64164 321.50438 418.2325 317.51014 446.0824 Z M 280.25802 416.1187 C 294.68395 444.6137 319.10234 401.8712 296.18007 398.1515 C 282.93457 396.01025 284.56795 403.7242 278.37757 404.8909 C 274.80883 405.5635 243.6922 405.22033 242.04508 404.23206 C 240.39798 403.2438 238.14693 397.98678 234.24877 395.5573 C 218.09337 385.42757 201.03207 405.81054 212.57556 419.9757 C 220.26207 429.4054 236.60962 427.072 241.61958 415.88536 L 280.2443 416.1187 Z M 306.76275 484.3228 C 304.85485 483.1149 303.81168 473.6852 293.3937 472.244 C 271.04793 469.15564 265.8458 503.0998 288.38376 506.2293 C 300.13313 507.849 302.89204 497.70554 307.2157 496.86826 C 318.77292 494.64466 337.23427 498.3781 349.8072 496.90943 C 368.3921 494.75447 359.1408 464.4751 361.47422 452.30023 C 362.32523 447.8942 367.88422 446.86477 368.3921 439.90573 C 369.6823 422.2542 345.07176 419.8796 342.83444 436.41935 C 341.5442 445.9314 349.51896 448.8825 350.4523 453.68654 L 348.7915 482.82665 C 346.9385 484.89926 308.60202 485.47575 306.76275 484.3228 Z" fill="#a21112"/>
              </g>
            </g>
            <g id="Group_23">
              <title>Graphic_11</title>
              <g id="Graphic_24">
                <path d="M 317.52386 446.10984 C 321.5181 418.25994 321.43575 396.6691 295.4526 381.02155 C 255.0847 356.71297 185.6865 378.3038 173.01749 425.82295 C 160.34846 473.34205 195.10247 503.7312 233.7821 520.22975 C 236.98022 506.8882 222.04643 503.5253 228.62115 489.66215 C 235.86843 474.3852 258.98286 482.67567 256.86907 499.9703 C 255.5651 510.58044 240.32935 510.8824 244.84517 524.2926 C 288.58964 534.05174 350.35624 535.2047 380.4297 495.9898 C 400.497 469.8145 395.40467 437.80567 371.06863 416.5991 C 362.59975 409.21457 347.59733 405.01444 341.62656 398.0005 C 337.4676 393.1278 333.30866 381.4745 329.06735 374.87234 C 300.29785 330.20823 261.64568 309.9488 266.76545 247.79787 C 273.90292 160.9815 394.3066 161.55798 410.48945 233.05625 C 414.14054 249.19792 409.28157 249.22537 423.21337 261.51006 C 432.84895 270.0064 446.7121 278.0086 457.9948 284.37742 C 463.3891 287.42457 479.1327 292.40708 480.27197 297.74646 C 482.31713 307.39577 454.9065 310.2233 448.67493 310.30567 C 428.56647 310.55273 407.6619 303.1682 388.51427 298.07588 C 380.8415 305.89965 368.6666 309.72918 371.38433 322.94723 C 373.60793 333.7358 405.8638 357.0012 414.9641 367.227 C 461.8106 419.8659 454.2751 494.96035 393.75756 532.6105 C 333.3773 570.17834 244.50202 555.3132 190.62783 511.95303 C 150.87758 479.95794 117.86677 415.14416 127.1043 363.4112 C 127.59844 360.61112 134.42021 336.89275 139.08702 340.4203 C 144.56366 353.15796 160.92495 370.6173 175.47442 371.9899 C 191.13569 373.4723 221.03072 358.36008 240.1509 355.68352 C 280.7247 349.98727 323.24757 366.3211 329.80855 411.1911 C 330.75564 417.66973 330.76936 447.3177 329.0948 452.9316 C 327.8732 457.0494 324.89468 458.0514 320.9965 458.4769 C 292.2819 461.57894 258.29656 456.17093 228.99174 458.4769 C 225.75243 459.09455 224.7779 463.4182 221.05817 465.6418 C 201.11442 477.5971 185.86494 446.10984 205.80868 438.039 C 220.26207 432.19177 225.46419 446.1373 227.63288 446.1373 L 317.5376 446.1373 Z M 374.73345 239.82312 C 374.73345 231.94445 368.3509 225.54817 360.4585 225.54817 C 352.5661 225.54817 346.18356 231.93072 346.18356 239.82312 C 346.18356 247.71552 352.5661 254.09807 360.4585 254.09807 C 368.3509 254.09807 374.73345 247.71552 374.73345 239.82312 Z M 217.6267 452.46494 C 217.6267 449.44524 215.16975 446.9883 212.15005 446.9883 C 209.13035 446.9883 206.67342 449.44524 206.67342 452.46494 C 206.67342 455.48464 209.13035 457.9416 212.15005 457.9416 C 215.16975 457.9416 217.6267 455.48464 217.6267 452.46494 Z M 246.43738 496.882 C 246.43738 494.4525 244.47457 492.4897 242.04508 492.4897 C 239.6156 492.4897 237.6528 494.4525 237.6528 496.882 C 237.6528 499.31147 239.6156 501.2743 242.04508 501.2743 C 244.47457 501.2743 246.43738 499.31147 246.43738 496.882 Z" fill="white"/>
              </g>
            </g>
            <g id="Group_21">
              <title>Graphic_10</title>
              <g id="Graphic_22">
                <path d="M 306.76275 484.3228 C 308.60202 485.4895 346.9385 484.89926 348.7915 482.82665 L 350.4523 453.68654 C 349.51896 448.8825 341.5442 445.9314 342.83444 436.41935 C 345.07176 419.8796 369.6823 422.24046 368.3921 439.90573 C 367.88422 446.86477 362.32523 447.90794 361.47422 452.30023 C 359.1408 464.4751 368.3921 494.7682 349.8072 496.90943 C 337.22054 498.3644 318.77292 494.64466 307.2157 496.86826 C 302.89204 497.6918 300.13313 507.849 288.38376 506.2293 C 265.8458 503.11354 271.04793 469.15564 293.3937 472.244 C 303.81168 473.6852 304.84112 483.10117 306.76275 484.3228 Z M 359.93692 438.49196 C 359.93692 436.0625 357.9741 434.09967 355.54463 434.09967 C 353.11515 434.09967 351.15234 436.0625 351.15234 438.49196 C 351.15234 440.92145 353.11515 442.88425 355.54463 442.88425 C 357.9741 442.88425 359.93692 440.92145 359.93692 438.49196 Z M 296.74283 489.08567 C 296.74283 485.68164 293.98393 482.92273 290.5799 482.92273 C 287.17588 482.92273 284.41697 485.68164 284.41697 489.08567 C 284.41697 492.4897 287.17588 495.2486 290.5799 495.2486 C 293.98393 495.2486 296.74283 492.4897 296.74283 489.08567 Z" fill="white"/>
              </g>
            </g>
            <g id="Group_19">
              <title>Graphic_9</title>
              <g id="Graphic_20">
                <path d="M 280.25802 416.1187 L 241.6333 415.88536 C 236.62335 427.072 220.2758 429.4054 212.58928 419.9757 C 201.0458 405.81054 218.1071 385.42757 234.2625 395.5573 C 238.14693 398.0005 240.39798 403.2438 242.0588 404.23206 C 243.71965 405.22033 274.82256 405.5772 278.3913 404.8909 C 284.58168 403.71047 282.9483 395.9965 296.1938 398.15147 C 319.11607 401.8712 294.7114 444.6137 280.27174 416.1187 Z M 231.5585 409.72243 C 231.5585 406.40076 228.8682 403.7242 225.56027 403.7242 C 222.25232 403.7242 219.56205 406.4145 219.56205 409.72243 C 219.56205 413.03037 222.25232 415.72065 225.56027 415.72065 C 228.8682 415.72065 231.5585 413.03037 231.5585 409.72243 Z M 296.8252 411.095 C 296.8252 408.5008 294.72513 406.40076 292.13093 406.40076 C 289.53673 406.40076 287.43667 408.5008 287.43667 411.095 C 287.43667 413.6892 289.53673 415.78927 292.13093 415.78927 C 294.72513 415.78927 296.8252 413.6892 296.8252 411.095 Z" fill="white"/>
              </g>
            </g>
            <g id="Group_17">
              <title>Graphic_8</title>
              <g id="Graphic_18">
                <circle cx="360.47223" cy="239.82312" r="14.2749986950693" fill="#a21112"/>
              </g>
            </g>
            <g id="Group_15">
              <title>Graphic_7</title>
              <g id="Graphic_16">
                <circle cx="212.15005" cy="452.46494" r="5.47665815320448" fill="#a21112"/>
              </g>
            </g>
            <g id="Group_13">
              <title>Graphic_6</title>
              <g id="Graphic_14">
                <circle cx="242.03136" cy="496.882" r="4.39230729079058" fill="#a21112"/>
              </g>
            </g>
            <g id="Group_11">
              <title>Graphic_5</title>
              <g id="Graphic_12">
                <circle cx="290.5799" cy="489.08567" r="6.16295616739052" fill="#a21112"/>
              </g>
            </g>
            <g id="Group_9">
              <title>Graphic_4</title>
              <g id="Graphic_10">
                <circle cx="355.54463" cy="438.49196" r="4.39230729079049" fill="#a21112"/>
              </g>
            </g>
            <g id="Group_7">
              <title>Graphic_3</title>
              <g id="Graphic_8">
                <circle cx="225.56027" cy="409.72243" r="5.9982446439858" fill="#a21112"/>
              </g>
            </g>
            <g id="Group_5">
              <title>Graphic_2</title>
              <g id="Graphic_6">
                <circle cx="292.13093" cy="411.095" r="4.69427841703239" fill="#a21112"/>
              </g>
            </g>
          </g>
        </g>
      </g>
    </g>
  </g>
</svg>
