<?xml version="1.0" encoding="UTF-8" standalone="no"?>
<!DOCTYPE svg PUBLIC "-//W3C//DTD SVG 1.1//EN" "http://www.w3.org/Graphics/SVG/1.1/DTD/svg11.dtd">
<svg width="100%" height="100%" viewBox="0 0 392 147" version="1.1" xmlns="http://www.w3.org/2000/svg" xmlns:xlink="http://www.w3.org/1999/xlink" xml:space="preserve" xmlns:serif="http://www.serif.com/" style="fill-rule:evenodd;clip-rule:evenodd;stroke-linecap:round;stroke-miterlimit:1.5;">
    <g transform="matrix(1,0,0,1,-158,-79)">
        <g transform="matrix(-1,1.22465e-16,-1.22465e-16,-1,306.171,177.399)">
            <g>
                <g transform="matrix(4.6875,0,0,1,-162.646,-6.97)">
                    <rect x="43.094" y="26.187" width="19.2" height="9.601" style="fill:rgb(220,79,135);"/>
                </g>
                <g transform="matrix(1,0,0,1,-3.73667,-6.971)">
                    <rect x="5.9" y="27.388" width="7.2" height="7.2" style="fill:none;stroke:rgb(255,140,19);stroke-width:2.4px;"/>
                </g>
                <g transform="matrix(1,0,0,1,-3.73667,-6.97)">
                    <rect x="23.894" y="26.187" width="9.6" height="9.601" style="fill:rgb(148,76,174);"/>
                </g>
                <g transform="matrix(6.77083,0,0,1,-307.825,-45.404)">
                    <rect x="52.694" y="45.404" width="9.6" height="9.601" style="fill:rgb(254,199,11);"/>
                </g>
                <g transform="matrix(1,0,0,1,-3.73667,-45.38)">
                    <rect x="4.7" y="45.392" width="38.4" height="9.601" style="fill:rgb(51,169,117);"/>
                </g>
                <g transform="matrix(2.50064,0,0,1,-10.7807,31.444)">
                    <rect x="4.694" y="6.98" width="57.6" height="9.601" style="fill:rgb(60,97,163);"/>
                </g>
            </g>
        </g>
        <g transform="matrix(1,0,0,1,235.71,122.966)">
            <g transform="matrix(1,0,0,1,79.9644,16.4029)">
                <path d="M0,28.168L0,26.955C3.554,26.694 3.9,26.435 3.9,22.751L3.9,5.417C3.9,1.733 3.554,1.473 0,1.213L0,0L11.484,0L11.484,1.213C7.931,1.473 7.584,1.733 7.584,5.417L7.584,22.751C7.584,26.478 7.931,26.694 11.484,26.955L11.484,28.168L0,28.168Z" style="fill:rgb(51,169,117);fill-rule:nonzero;"/>
            </g>
            <g transform="matrix(1,0,0,1,106.095,24.9829)">
                <path d="M0,19.588L0,18.461C2.557,18.201 2.86,17.855 2.86,14.864L2.86,7.627C2.86,4.637 1.82,2.687 -1.083,2.687C-2.817,2.687 -4.507,3.77 -5.807,4.897L-5.807,15.081C-5.807,18.027 -5.547,18.201 -2.99,18.461L-2.99,19.588L-12.394,19.588L-12.394,18.461C-9.447,18.158 -9.23,17.942 -9.23,15.081L-9.23,6.11C-9.23,3.337 -9.49,3.207 -11.831,2.773L-11.831,1.777C-9.75,1.386 -7.713,0.867 -5.807,0L-5.807,3.466C-4.94,2.817 -3.987,2.167 -2.903,1.43C-1.69,0.65 -0.563,0.13 0.693,0.13C4.117,0.13 6.284,2.513 6.284,6.718L6.284,15.081C6.284,18.027 6.5,18.201 9.014,18.461L9.014,19.588L0,19.588Z" style="fill:rgb(255,140,19);fill-rule:nonzero;"/>
            </g>
            <g transform="matrix(1,0,0,1,125.335,20.1719)">
                <path d="M0,24.356C-0.737,24.746 -1.43,24.918 -1.82,24.918C-4.55,24.918 -6.067,23.186 -6.067,19.762L-6.067,7.151L-9.057,7.151L-9.23,6.718L-8.061,5.461L-6.067,5.461L-6.067,2.298L-3.25,-0.562L-2.644,-0.476L-2.644,5.461L2.253,5.461C2.643,5.895 2.513,6.848 1.993,7.151L-2.644,7.151L-2.644,18.289C-2.644,21.799 -1.214,22.449 -0.13,22.449C0.953,22.449 1.95,22.015 2.557,21.712L2.946,22.838L0,24.356Z" style="fill:rgb(148,76,174);fill-rule:nonzero;"/>
            </g>
            <g transform="matrix(1,0,0,1,138.076,43.4869)">
                <path d="M0,-16.77C-1.95,-16.77 -3.857,-14.951 -4.507,-11.439C-2.08,-11.439 0.303,-11.483 2.816,-11.57C3.597,-11.57 3.856,-11.83 3.856,-12.437C3.9,-14.69 2.427,-16.77 0.043,-16.77L0,-16.77ZM7.367,-2.6C4.637,0.824 1.646,1.604 0.303,1.604C-5.027,1.604 -8.147,-2.729 -8.147,-7.626C-8.147,-10.616 -7.063,-13.26 -5.287,-15.21C-3.51,-17.204 -1.17,-18.374 1.04,-18.374L1.083,-18.374C4.68,-18.374 7.583,-15.167 7.583,-11.786C7.583,-10.92 7.367,-10.573 6.587,-10.399C5.85,-10.27 0.433,-9.836 -4.724,-9.663C-4.68,-3.77 -1.3,-1.343 1.733,-1.343C3.467,-1.343 5.113,-2.036 6.673,-3.51L7.367,-2.6Z" style="fill:rgb(219,83,133);fill-rule:nonzero;"/>
            </g>
            <g transform="matrix(1,0,0,1,147.262,13.7159)">
                <path d="M0,30.855L0,29.728C2.73,29.468 3.12,29.209 3.12,26.348L3.12,5.851C3.12,2.903 2.86,2.773 0.13,2.557L0.13,1.517C2.383,1.257 5.07,0.52 6.543,0L6.543,26.348C6.543,29.209 6.89,29.468 9.663,29.728L9.663,30.855L0,30.855Z" style="fill:rgb(60,97,163);fill-rule:nonzero;"/>
            </g>
            <g transform="matrix(1,0,0,1,158.441,13.7159)">
                <path d="M0,30.855L0,29.728C2.729,29.468 3.12,29.209 3.12,26.348L3.12,5.851C3.12,2.903 2.86,2.773 0.13,2.557L0.13,1.517C2.383,1.257 5.07,0.52 6.543,0L6.543,26.348C6.543,29.209 6.89,29.468 9.663,29.728L9.663,30.855L0,30.855Z" style="fill:rgb(60,97,163);fill-rule:nonzero;"/>
            </g>
            <g transform="matrix(1,0,0,1,172.439,42.3169)">
                <path d="M0,-23.184C0,-24.484 1.04,-25.438 2.21,-25.438C3.423,-25.438 4.376,-24.484 4.376,-23.184C4.376,-22.014 3.423,-20.974 2.166,-20.974C1.04,-20.974 0,-22.014 0,-23.184M-2.297,2.254L-2.297,1.127C0.433,0.867 0.736,0.608 0.736,-2.34L0.736,-11.31C0.736,-13.954 0.606,-14.17 -1.994,-14.561L-1.994,-15.6C0.216,-15.948 2.253,-16.51 4.16,-17.29L4.16,-2.34C4.16,0.608 4.463,0.867 7.236,1.127L7.236,2.254L-2.297,2.254Z" style="fill:rgb(51,169,117);fill-rule:nonzero;"/>
            </g>
            <g transform="matrix(1,0,0,1,196.835,37.9853)">
                <path d="M0,-14.996C-0.78,-17.769 -1.906,-20.76 -5.677,-20.76C-9.014,-20.76 -10.487,-18.333 -10.487,-15.992C-10.487,-12.829 -8.407,-11.355 -4.983,-9.579C-1.604,-7.846 2.514,-5.808 2.514,-0.954C2.514,3.595 -1.343,7.236 -7.106,7.236C-8.884,7.236 -10.271,6.889 -11.354,6.586C-12.437,6.196 -13.087,5.892 -13.477,5.675C-13.823,4.765 -14.387,1.039 -14.647,-1.041L-13.391,-1.345C-12.697,1.298 -10.747,5.675 -6.283,5.675C-3.033,5.675 -1.083,3.638 -1.083,0.475C-1.083,-2.732 -3.467,-4.248 -6.717,-5.982C-9.49,-7.456 -13.867,-9.622 -13.867,-14.519C-13.867,-18.68 -10.53,-22.232 -4.94,-22.232C-2.946,-22.232 -1.127,-21.756 0.521,-21.236C0.693,-19.676 0.91,-17.986 1.257,-15.256L0,-14.996Z" style="fill:rgb(255,140,19);fill-rule:nonzero;"/>
            </g>
            <g transform="matrix(1,0,0,1,220.973,54.6239)">
                <path d="M0,-27.907C-2.297,-27.561 -2.687,-27.214 -3.856,-24.744C-4.94,-22.447 -6.283,-18.85 -9.273,-11.699C-12.177,-4.766 -13.131,-2.296 -13.737,0.044C-13.997,0.867 -14.518,1.084 -15.124,1.084C-16.337,1.084 -17.594,0.044 -17.594,-0.996C-17.594,-1.69 -17.204,-2.079 -16.468,-2.556C-15.124,-3.423 -14.257,-4.463 -13.261,-6.412C-12.438,-7.93 -12.091,-8.84 -11.917,-9.403C-11.7,-10.053 -11.7,-10.616 -11.961,-11.353C-13.694,-16.293 -15.644,-21.536 -16.944,-24.614C-17.854,-26.998 -18.287,-27.561 -20.671,-27.907L-20.671,-28.991L-11.874,-28.991L-11.874,-27.907C-13.867,-27.561 -14.084,-27.128 -13.521,-25.524L-9.577,-14.647C-8.363,-17.593 -6.5,-22.707 -5.59,-25.437C-5.07,-27.084 -5.374,-27.561 -7.844,-27.907L-7.844,-28.991L0,-28.991L0,-27.907Z" style="fill:rgb(51,169,117);fill-rule:nonzero;"/>
            </g>
            <g transform="matrix(1,0,0,1,232.889,39.4132)">
                <path d="M0,-8.667C-0.823,-11.224 -2.34,-12.957 -4.463,-12.957C-6.109,-12.957 -7.28,-11.657 -7.28,-9.967C-7.28,-8.06 -5.547,-7.019 -3.597,-6.196C-0.347,-4.853 1.863,-3.292 1.863,-0.302C1.863,3.641 -1.819,5.677 -5.286,5.677C-7.496,5.677 -9.49,4.854 -10.27,4.205C-10.573,3.597 -10.963,0.651 -10.963,-0.909L-9.837,-1.125C-9.057,1.734 -7.106,4.248 -4.507,4.248C-2.903,4.248 -1.43,3.035 -1.43,1.214C-1.43,-0.693 -2.687,-1.733 -4.854,-2.729C-7.453,-3.943 -10.27,-5.373 -10.27,-8.71C-10.27,-11.743 -7.67,-14.3 -3.683,-14.3C-1.906,-14.344 -0.736,-13.91 0.174,-13.563C0.521,-12.566 0.997,-10.01 1.127,-8.927L0,-8.667Z" style="fill:rgb(220,79,135);fill-rule:nonzero;"/>
            </g>
            <g transform="matrix(1,0,0,1,268.64,23.2061)">
                <path d="M0,14.561C-0.26,15.905 -1.17,20.021 -1.561,21.365L-21.191,21.365L-21.191,20.152C-17.551,19.891 -17.204,19.588 -17.204,15.905L-17.204,-1.43C-17.204,-5.113 -17.508,-5.33 -21.018,-5.59L-21.018,-6.804L-9.707,-6.804L-9.707,-5.59C-13.131,-5.33 -13.521,-5.113 -13.521,-1.43L-13.521,15.688C-13.521,18.028 -13.304,18.895 -12.523,19.328C-11.657,19.804 -10.184,19.891 -8.363,19.891C-5.98,19.891 -4.507,19.674 -3.51,18.548C-2.773,17.681 -1.95,16.294 -1.3,14.301L0,14.561Z" style="fill:rgb(148,76,174);fill-rule:nonzero;"/>
            </g>
            <g transform="matrix(1,0,0,1,281.769,36.0335)">
                <path d="M0,-1.863C-0.91,-1.386 -2.99,-0.476 -3.9,-0.043C-5.59,0.737 -6.544,1.561 -6.544,3.12C-6.544,5.374 -4.81,6.457 -3.467,6.457C-2.34,6.414 -0.823,5.677 0,4.897L0,-1.863ZM3.163,9.057C2.514,9.057 1.604,8.667 1.127,8.234C0.563,7.627 0.304,7.021 0.087,6.283C-1.646,7.454 -3.727,9.057 -5.026,9.057C-8.104,9.057 -10.227,6.5 -10.227,3.771C-10.227,1.647 -9.101,0.304 -6.717,-0.519C-4.116,-1.386 -0.953,-2.556 0,-3.337L0,-4.117C0,-7.237 -1.474,-9.014 -3.64,-9.014C-4.507,-9.014 -5.157,-8.667 -5.59,-8.147C-6.153,-7.584 -6.544,-6.63 -6.89,-5.33C-7.063,-4.594 -7.54,-4.29 -8.146,-4.29C-8.927,-4.29 -10.054,-5.156 -10.054,-6.154C-10.054,-6.804 -9.49,-7.28 -8.667,-7.887C-7.453,-8.754 -4.637,-10.444 -2.167,-10.92C-0.866,-10.92 0.434,-10.53 1.387,-9.75C2.903,-8.493 3.337,-6.717 3.337,-4.463L3.337,3.597C3.337,5.547 4.117,6.198 4.854,6.198C5.374,6.198 5.98,5.981 6.414,5.721L6.847,6.847L3.163,9.057Z" style="fill:rgb(220,79,135);fill-rule:nonzero;"/>
            </g>
            <g transform="matrix(1,0,0,1,295.16,19.2625)">
                <path d="M0,20.281C0,20.931 0.087,21.365 0.26,21.755C0.521,22.622 1.82,24.138 4.117,24.181C7.714,24.181 10.011,21.105 10.011,16.078C10.011,11.137 6.977,8.278 3.38,8.278C2.167,8.278 0.78,8.624 0,9.101L0,20.281ZM3.51,6.283C4.203,5.981 4.811,5.851 5.287,5.851C9.924,5.851 13.824,9.837 13.824,14.951C13.824,21.322 8.754,25.828 2.946,25.828C1.17,25.828 -1.04,25.395 -3.424,24.268L-3.424,0.173C-3.424,-2.513 -3.51,-2.773 -6.283,-3.033L-6.283,-4.03C-4.247,-4.29 -1.604,-4.94 0,-5.547L0,7.8L3.51,6.283Z" style="fill:rgb(255,140,19);fill-rule:nonzero;"/>
            </g>
        </g>
        <g transform="matrix(6.12323e-17,1,-1,6.12323e-17,257.208,80.4103)">
            <g>
                <g transform="matrix(4.6875,0,0,1,-162.646,-6.97)">
                    <rect x="43.094" y="26.187" width="19.2" height="9.601" style="fill:rgb(220,79,135);"/>
                </g>
                <g transform="matrix(1,0,0,1,-3.73667,-6.971)">
                    <rect x="5.9" y="27.388" width="7.2" height="7.2" style="fill:none;stroke:rgb(255,140,19);stroke-width:2.4px;"/>
                </g>
                <g transform="matrix(1,0,0,1,-3.73667,-6.97)">
                    <rect x="23.894" y="26.187" width="9.6" height="9.601" style="fill:rgb(148,76,174);"/>
                </g>
                <g transform="matrix(6.77083,0,0,1,-307.825,-45.404)">
                    <rect x="52.694" y="45.404" width="9.6" height="9.601" style="fill:rgb(254,199,11);"/>
                </g>
                <g transform="matrix(1,0,0,1,-3.73667,-45.38)">
                    <rect x="4.7" y="45.392" width="38.4" height="9.601" style="fill:rgb(51,169,117);"/>
                </g>
                <g transform="matrix(2.50064,0,0,1,-10.7807,31.444)">
                    <rect x="4.694" y="6.98" width="57.6" height="9.601" style="fill:rgb(60,97,163);"/>
                </g>
            </g>
        </g>
    </g>
</svg>
