<?xml version="1.0" encoding="UTF-8" standalone="no"?><!DOCTYPE svg PUBLIC "-//W3C//DTD SVG 1.1//EN" "http://www.w3.org/Graphics/SVG/1.1/DTD/svg11.dtd"><svg width="100%" height="100%" viewBox="0 0 992 796" version="1.1" xmlns="http://www.w3.org/2000/svg" xmlns:xlink="http://www.w3.org/1999/xlink" xml:space="preserve" xmlns:serif="http://www.serif.com/" style="fill-rule:evenodd;clip-rule:evenodd;stroke-linecap:round;stroke-miterlimit:1.5;"><g><path d="M515.361,495.833l-40.004,0l-0,130.698l40.004,-0l-0,-130.698Z" style="fill:#dc4f87;"/><path d="M595.432,495.833l-40.004,0l-0,33.198l40.004,-0l-0,-33.198Z" style="fill:#fec70b;"/><path d="M435.332,495.833l-40.004,0l-0,220.698l40.004,-0l-0,-220.698Z" style="fill:#3c61a3;"/><path d="M510.359,687.876l-0,-30l-30,0l-0,30l30,0Z" style="fill:none;stroke:#ff8c13;stroke-width:10px;"/><path d="M435.332,788.507l-0,-39.166l-40.004,-0l-0,39.166l40.004,0Z" style="fill:#33a975;"/><path d="M595.432,589.384l-0,-40l-40.004,-0l-0,40l40.004,-0Z" style="fill:#944cae;"/></g><g><path d="M517.873,251.031l-0,-80l-40.004,0l-0,80l40.004,0Z" style="fill:#dc4f87;"/><path d="M512.873,46.056l-0,-30l-30,0l-0,30l30,0Z" style="fill:none;stroke:#ff8c13;stroke-width:10px;"/><path d="M517.873,131.031l-0,-40l-40.004,0l-0,40l40.004,0Z" style="fill:#944cae;"/><path d="M597.944,251.031l-0,-40l-40.004,0l-0,40l40.004,0Z" style="fill:#fec70b;"/><path d="M597.894,171.056l-0,-160l-40.004,0l-0,160l40.004,0Z" style="fill:#33a975;"/><path d="M437.844,251.031l-0,-240l-40.004,0l-0,240l40.004,0Z" style="fill:#3c61a3;"/></g><g><path d="M18.255,414.738l0,-5.054c14.808,-1.088 16.25,-2.167 16.25,-17.517l0,-72.225c0,-15.35 -1.442,-16.433 -16.25,-17.517l0,-5.054l47.85,0l0,5.054c-14.804,1.084 -16.25,2.167 -16.25,17.517l0,72.225c0,15.529 1.446,16.429 16.25,17.517l0,5.054l-47.85,-0Z" style="fill:#33a975;fill-rule:nonzero;"/><path d="M127.131,414.738l0,-4.696c10.655,-1.083 11.917,-2.525 11.917,-14.988l0,-30.154c0,-12.458 -4.333,-20.583 -16.429,-20.583c-7.225,-0 -14.267,4.512 -19.683,9.208l-0,42.434c-0,12.275 1.083,13 11.737,14.083l0,4.696l-39.183,-0l-0,-4.696c12.279,-1.263 13.183,-2.163 13.183,-14.083l0,-37.38c0,-11.554 -1.083,-12.095 -10.837,-13.904l-0,-4.15c8.67,-1.629 17.158,-3.791 25.1,-7.404l-0,14.442c3.612,-2.704 7.583,-5.413 12.1,-8.484c5.054,-3.25 9.75,-5.416 14.983,-5.416c14.267,-0 23.296,9.929 23.296,27.45l-0,34.846c-0,12.275 0.9,13 11.375,14.083l-0,4.696l-37.559,-0Z" style="fill:#ff8c13;fill-rule:nonzero;"/><path d="M207.301,414.559c-3.071,1.625 -5.958,2.341 -7.583,2.341c-11.375,0 -17.696,-7.216 -17.696,-21.483l-0,-52.546l-12.459,0l-0.72,-1.804l4.87,-5.238l8.309,0l-0,-13.179l11.737,-11.916l2.525,0.358l0,24.737l20.404,0c1.625,1.809 1.084,5.78 -1.083,7.042l-19.321,0l0,46.408c0,14.625 5.959,17.334 10.475,17.334c4.513,-0 8.667,-1.809 11.196,-3.071l1.621,4.692l-12.275,6.325Z" style="fill:#944cae;fill-rule:nonzero;"/><path d="M260.386,340.346c-8.125,0 -16.071,7.579 -18.78,22.213c10.113,-0 20.042,-0.184 30.513,-0.546c3.254,-0 4.333,-1.084 4.333,-3.613c0.184,-9.387 -5.954,-18.054 -15.887,-18.054l-0.179,0Zm30.695,59.042c-11.375,14.266 -23.837,17.516 -29.433,17.516c-22.208,0 -35.208,-18.054 -35.208,-38.458c-0,-12.458 4.516,-23.475 11.916,-31.6c7.405,-8.308 17.155,-13.183 26.363,-13.183l0.179,-0c14.988,-0 27.083,13.362 27.083,27.45c0,3.608 -0.9,5.054 -4.15,5.779c-3.07,0.537 -25.641,2.346 -47.129,3.067c0.184,24.554 14.267,34.666 26.904,34.666c7.225,0 14.084,-2.887 20.584,-9.029l2.891,3.792Z" style="fill:#db5385;fill-rule:nonzero;"/><path d="M298.661,414.738l-0,-4.696c11.375,-1.083 13,-2.163 13,-14.083l-0,-85.405c-0,-12.283 -1.084,-12.825 -12.459,-13.725l0,-4.333c9.388,-1.083 20.584,-4.154 26.721,-6.321l0,109.784c0,11.92 1.446,13 13,14.083l0,4.696l-40.262,-0Z" style="fill:#3c61a3;fill-rule:nonzero;"/><path d="M345.243,414.738l-0,-4.696c11.37,-1.083 13,-2.163 13,-14.083l-0,-85.405c-0,-12.283 -1.084,-12.825 -12.459,-13.725l0,-4.333c9.388,-1.083 20.584,-4.154 26.721,-6.321l0,109.784c0,11.92 1.446,13 13,14.083l0,4.696l-40.262,-0Z" style="fill:#3c61a3;fill-rule:nonzero;"/><path d="M403.564,308.746c-0,-5.417 4.333,-9.392 9.208,-9.392c5.054,0 9.025,3.975 9.025,9.392c0,4.875 -3.971,9.208 -9.208,9.208c-4.692,0 -9.025,-4.333 -9.025,-9.208m-9.571,105.992l0,-4.696c11.375,-1.083 12.638,-2.163 12.638,-14.446l-0,-37.375c-0,-11.017 -0.542,-11.917 -11.375,-13.546l-0,-4.329c9.208,-1.45 17.695,-3.792 25.641,-7.042l0,62.292c0,12.283 1.263,13.363 12.817,14.446l-0,4.696l-39.721,-0Z" style="fill:#33a975;fill-rule:nonzero;"/><path d="M505.216,324.814c-3.25,-11.554 -7.942,-24.016 -23.654,-24.016c-13.904,-0 -20.042,10.112 -20.042,19.866c0,13.18 8.667,19.321 22.933,26.721c14.08,7.221 31.238,15.713 31.238,35.938c-0,18.954 -16.071,34.125 -40.083,34.125c-7.409,-0 -13.188,-1.446 -17.7,-2.709c-4.513,-1.625 -7.221,-2.891 -8.846,-3.795c-1.442,-3.792 -3.792,-19.317 -4.875,-27.984l5.233,-1.266c2.892,11.012 11.017,29.25 29.617,29.25c13.541,-0 21.666,-8.488 21.666,-21.667c0,-13.363 -9.933,-19.679 -23.475,-26.904c-11.554,-6.142 -29.791,-15.167 -29.791,-35.571c-0,-17.338 13.904,-32.138 37.196,-32.138c8.308,0 15.887,1.984 22.754,4.15c0.716,6.5 1.621,13.542 3.066,24.917l-5.237,1.083Z" style="fill:#ff8c13;fill-rule:nonzero;"/><path d="M605.79,340.346c-9.571,1.442 -11.196,2.888 -16.067,13.179c-4.517,9.571 -10.112,24.559 -22.571,54.354c-12.1,28.888 -16.075,39.18 -18.6,48.93c-1.083,3.429 -3.254,4.333 -5.779,4.333c-5.054,-0 -10.292,-4.333 -10.292,-8.667c0,-2.891 1.625,-4.512 4.692,-6.5c5.6,-3.612 9.213,-7.946 13.363,-16.066c3.429,-6.325 4.875,-10.117 5.6,-12.463c0.904,-2.708 0.904,-5.054 -0.184,-8.125c-7.221,-20.583 -15.346,-42.429 -20.762,-55.254c-3.792,-9.933 -5.596,-12.279 -15.529,-13.721l-0,-4.517l36.654,0l-0,4.517c-8.304,1.442 -9.209,3.246 -6.863,9.929l16.434,45.321c5.058,-12.275 12.82,-33.583 16.612,-44.958c2.167,-6.863 0.9,-8.85 -9.392,-10.292l0,-4.517l32.684,0l-0,4.517Z" style="fill:#33a975;fill-rule:nonzero;"/><path d="M655.44,357.135c-3.429,-10.654 -9.75,-17.875 -18.596,-17.875c-6.858,-0 -11.738,5.417 -11.738,12.458c0,7.946 7.221,12.284 15.346,15.713c13.542,5.596 22.75,12.1 22.75,24.558c0,16.429 -15.341,24.913 -29.787,24.913c-9.209,-0 -17.517,-3.43 -20.767,-6.134c-1.262,-2.533 -2.887,-14.808 -2.887,-21.308l4.691,-0.9c3.25,11.912 11.379,22.387 22.209,22.387c6.683,0 12.82,-5.054 12.82,-12.641c0,-7.946 -5.237,-12.279 -14.266,-16.429c-10.829,-5.059 -22.567,-11.017 -22.567,-24.921c0,-12.638 10.833,-23.292 27.446,-23.292c7.404,-0.183 12.279,1.625 16.071,3.071c1.446,4.154 3.429,14.804 3.971,19.317l-4.696,1.083Z" style="fill:#dc4f87;fill-rule:nonzero;"/><path d="M804.402,386.389c-1.084,5.6 -4.875,22.75 -6.504,28.35l-81.792,-0l-0,-5.055c15.167,-1.087 16.612,-2.35 16.612,-17.695l0,-72.23c0,-15.345 -1.266,-16.25 -15.891,-17.333l-0,-5.058l47.129,-0l-0,5.058c-14.267,1.083 -15.892,1.988 -15.892,17.333l0,71.325c0,9.75 0.904,13.363 4.159,15.167c3.608,1.983 9.745,2.346 17.333,2.346c9.929,-0 16.067,-0.904 20.221,-5.596c3.071,-3.612 6.5,-9.392 9.208,-17.696l5.417,1.084Z" style="fill:#944cae;fill-rule:nonzero;"/><path d="M859.11,371.403c-3.792,1.987 -12.459,5.779 -16.25,7.583c-7.042,3.25 -11.017,6.683 -11.017,13.179c0,9.392 7.225,13.904 12.821,13.904c4.696,-0.179 11.017,-3.25 14.446,-6.5l-0,-28.166Zm13.179,45.5c-2.704,-0 -6.496,-1.625 -8.483,-3.429c-2.35,-2.53 -3.43,-5.055 -4.334,-8.13c-7.221,4.88 -15.891,11.559 -21.304,11.559c-12.825,-0 -21.671,-10.654 -21.671,-22.025c0,-8.85 4.692,-14.446 14.625,-17.875c10.838,-3.613 24.017,-8.488 27.988,-11.742l-0,-3.25c-0,-13 -6.142,-20.404 -15.167,-20.404c-3.612,-0 -6.321,1.446 -8.125,3.612c-2.346,2.346 -3.975,6.321 -5.417,11.738c-0.72,3.067 -2.708,4.333 -5.233,4.333c-3.254,0 -7.95,-3.608 -7.95,-7.766c0,-2.709 2.35,-4.692 5.779,-7.221c5.059,-3.613 16.792,-10.654 27.084,-12.638c5.42,0 10.837,1.625 14.808,4.875c6.317,5.238 8.125,12.638 8.125,22.029l-0,33.584c-0,8.125 3.25,10.837 6.321,10.837c2.166,0 4.691,-0.904 6.5,-1.987l1.804,4.691l-15.35,9.209Z" style="fill:#dc4f87;fill-rule:nonzero;"/><path d="M914.904,393.79c0,2.709 0.363,4.517 1.084,6.142c1.087,3.612 6.5,9.929 16.07,10.108c14.988,0 24.559,-12.816 24.559,-33.762c-0,-20.588 -12.642,-32.5 -27.629,-32.5c-5.055,-0 -10.834,1.441 -14.084,3.429l0,46.583Zm14.625,-58.325c2.888,-1.258 5.421,-1.8 7.404,-1.8c19.321,0 35.571,16.609 35.571,37.917c0,26.546 -21.125,45.321 -45.325,45.321c-7.4,-0 -16.608,-1.804 -26.541,-6.5l-0,-100.396c-0,-11.192 -0.359,-12.275 -11.913,-13.358l0,-4.155c8.483,-1.083 19.496,-3.791 26.179,-6.32l0,55.612l14.625,-6.321Z" style="fill:#ff8c13;fill-rule:nonzero;"/></g></svg>