<?xml version="1.0" encoding="UTF-8" standalone="no"?><!DOCTYPE svg PUBLIC "-//W3C//DTD SVG 1.1//EN" "http://www.w3.org/Graphics/SVG/1.1/DTD/svg11.dtd"><svg width="100%" height="100%" viewBox="0 0 1304 256" version="1.1" xmlns="http://www.w3.org/2000/svg" xmlns:xlink="http://www.w3.org/1999/xlink" xml:space="preserve" xmlns:serif="http://www.serif.com/" style="fill-rule:evenodd;clip-rule:evenodd;stroke-linecap:round;stroke-miterlimit:1.5;"><g><g><path d="M179.56,106.882l0,40.006l80,0l0,-40.006l-80,0Z" style="fill:#3a3c42;"/><path d="M24.583,111.885l0,30l30,0l0,-30l-30,0Z" style="fill:none;stroke:#3a3c42;stroke-width:10px;"/><path d="M99.56,106.882l0,40.006l40,0l0,-40.006l-40,0Z" style="fill:#3a3c42;"/></g><g><path d="M259.56,26.811l0,40.006l-40,0l0,-40.006l40,0Z" style="fill:#3a3c42;"/><path d="M19.583,26.861l0,40.005l160,0l0,-40.005l-160,0Z" style="fill:#3a3c42;"/></g><path d="M259.56,186.911l0,40.006l-240,0l0,-40.006l240,0Z" style="fill:#3a3c42;"/></g><text x="326.324px" y="185.71px" style="font-family:'MinionPro-Regular', 'Minion Pro', serif;font-size:180.561px;fill:#3a3c42;">I<tspan x="385.006px 480.342px 534.33px 610.346px 656.931px " y="185.71px 185.71px 185.71px 185.71px 185.71px ">ntell</tspan>iS<tspan x="833.7px " y="185.71px ">y</tspan>s L<tspan x="1123.68px 1201.5px " y="185.71px 185.71px ">ab</tspan></text></svg>