<?xml version="1.0" encoding="UTF-8" standalone="no"?>
<!DOCTYPE svg PUBLIC "-//W3C//DTD SVG 1.1//EN" "http://www.w3.org/Graphics/SVG/1.1/DTD/svg11.dtd">
<svg version="1.1" xmlns:xl="http://www.w3.org/1999/xlink" xmlns:dc="http://purl.org/dc/elements/1.1/" xmlns="http://www.w3.org/2000/svg" viewBox="190 159 598 450" width="598" height="450">
  <defs/>
  <g id="Canvas_1" stroke="none" fill="none" fill-opacity="1" stroke-opacity="1" stroke-dasharray="none">
    <title>Canvas 1</title>
    <g id="Canvas_1_Layer_1">
      <title>Layer 1</title>
      <g id="Graphic_19">
        <path d="M 784.0156 253.8086 L 784.0156 521.8086 L 587.5156 521.8086 C 577.9656 521.8086 570.7156 502.6286 570.9556 494.2786 C 571.9256 459.8286 609.1656 471.2786 627.4956 469.7886 C 648.4756 468.0786 639.0556 449.9886 643.5156 439.7986 C 646.5256 432.9186 659.8456 430.4286 642.0256 422.3086 C 663.4456 415.0786 647.3256 409.9286 650.4556 400.7386 C 652.4056 395.0086 665.0656 394.7386 664.1056 384.2986 C 663.3256 375.9086 637.9056 360.1886 634.7856 349.5386 C 632.6056 342.0986 634.8556 332.1286 633.9956 324.3286 C 630.0656 288.7186 608.5256 267.6686 577.0256 253.7986 L 784.0256 253.7986 Z" fill="#999"/>
      </g>
      <g id="Graphic_18">
        <path d="M 412.01562 608.8086 L 375.00562 442.8086 L 314.02562 481.7986 L 352.01562 420.8286 L 190.01562 383.8186 L 352.01562 348.7886 L 314.01562 286.8186 L 375.00562 325.7986 L 412.01562 159.8086 L 412.01562 355.3086 C 374.98562 360.5086 374.32562 405.8886 412.01562 411.3086 Z" fill="#999"/>
      </g>
      <g id="Graphic_17">
        <path d="M 533.0156 261.8086 L 533.0156 311.3086 C 533.0156 324.7886 549.9056 318.0386 551.8056 323.5186 C 552.2856 324.8986 552.4556 348.6686 552.0156 350.3086 C 551.0656 353.9086 545.9356 353.1486 545.9156 360.3086 C 545.8956 372.4786 564.0556 373.3286 564.7856 361.0686 C 565.1956 354.1486 558.5156 352.7086 558.0056 351.0786 C 556.1256 345.0486 559.5956 329.8386 557.7856 322.5286 C 555.4856 313.2286 538.0056 317.4186 538.0056 312.3086 L 538.0056 264.8086 C 541.5456 265.8086 539.2356 271.7386 540.0556 272.7586 C 540.4756 273.2886 551.3956 275.2286 553.0056 272.8086 L 553.0056 291.3086 C 553.0056 295.1386 560.1056 299.8086 563.5056 299.8086 L 601.0056 299.8086 C 601.2056 303.2886 593.9956 306.3586 594.1556 309.1186 C 594.1856 309.5986 598.5856 317.0886 599.0056 317.3186 C 603.3956 319.6386 611.8556 314.1686 611.0156 324.8086 C 599.0456 328.4186 600.3056 316.9186 590.5156 317.7786 C 579.9756 318.6986 579.1056 334.7386 590.5156 335.8586 C 600.3256 336.8286 599.4056 329.5686 601.7356 328.8086 C 606.3156 327.3186 615.5556 328.7386 613.8656 335.2186 C 613.2756 337.4686 605.4856 338.9686 604.5056 340.8186 C 603.2156 343.2386 604.6056 352.8186 604.0056 352.8186 L 578.5056 352.8186 C 572.5756 352.8186 573.0556 328.0786 573.9256 324.2886 C 574.5556 321.5586 578.1456 322.8986 579.4156 318.7886 C 584.4256 302.5486 561.9256 300.9386 561.4956 314.3086 C 561.2256 322.4386 568.5956 323.2286 569.0456 324.5086 C 571.7656 332.3786 562.4956 357.8186 579.5056 357.8186 L 614.0056 357.8186 C 612.7356 360.6986 612.1756 371.2186 610.5156 372.8286 C 607.3956 375.8686 596.7556 369.5986 595.3956 381.8186 C 594.9756 385.6086 602.6256 389.4286 601.5656 392.7986 C 601.3156 393.5986 591.6656 405.4286 590.8856 405.7286 C 588.0956 406.8086 580.0356 395.7986 573.9256 406.2586 C 571.2256 410.8786 576.9856 415.3886 574.0156 419.3186 C 573.4156 420.1086 560.6656 426.7986 559.6556 426.6386 C 557.2356 426.2586 554.3756 419.7586 551.9856 418.2786 C 551.0856 417.7186 544.3356 420.4786 548.1856 409.4986 C 549.1356 406.7786 554.8156 407.0186 555.1156 399.3186 C 555.6956 384.4486 531.7856 388.1186 537.7756 403.5686 C 539.1256 407.0386 543.0156 407.4886 543.0156 407.8286 L 543.0156 431.8286 C 543.0156 432.5786 529.2356 432.8486 528.0156 432.8286 L 528.0156 382.8286 L 567.5156 382.8286 C 568.2456 382.8286 570.6056 390.7086 579.2456 389.6286 C 589.5956 388.3286 589.1556 370.1386 576.5456 370.7586 C 570.3856 371.0686 567.6956 378.8286 566.5156 378.8286 L 528.0156 378.8286 L 528.0156 261.8286 C 528.0156 261.5786 532.1756 261.9986 533.0156 261.8286 Z" fill="#999"/>
      </g>
      <g id="Graphic_16">
        <path d="M 263.76562 406.0486 C 264.71562 406.9386 268.55563 427.1586 269.99562 431.3286 C 285.06562 475.0486 319.62562 509.7386 363.24562 525.0786 C 367.43562 526.5486 386.81562 530.2186 387.76562 531.0486 C 388.65562 531.8286 393.82563 552.9086 393.00563 553.7986 C 314.01563 544.2886 247.97563 482.1986 241.02563 401.8086 C 244.69563 402.6386 261.97563 404.3786 263.76563 406.0486 Z" fill="#999"/>
      </g>
      <g id="Graphic_15">
        <path d="M 393.01562 214.8086 C 392.59563 217.7986 388.82562 236.9786 387.89562 237.6886 C 387.09562 238.2886 371.99562 240.3686 368.25562 241.5486 C 319.76562 256.9186 283.64562 293.3586 268.52562 341.8186 C 267.44562 345.2886 264.83562 361.4386 264.14562 362.2286 C 263.07562 363.4686 244.20563 365.5486 241.02563 366.8086 C 247.68562 286.6486 313.91563 223.2186 393.01562 214.8186 Z" fill="#999"/>
      </g>
      <g id="Graphic_14">
        <path d="M 724.5156 166.8086 C 727.1656 167.8986 739.9556 214.9286 743.5156 220.8186 C 747.8156 216.0786 758.1756 166.8086 761.0156 166.8086 L 784.0156 166.8086 L 784.0156 239.8086 L 769.5156 239.8086 C 767.3556 239.8086 769.0156 237.4386 769.0156 237.3086 L 769.0156 193.3086 C 769.0156 192.4286 771.8756 187.5586 769.0256 186.8186 C 766.3756 192.9386 754.2756 238.3086 751.8256 239.6286 C 751.1156 240.0086 736.3856 240.1686 735.6356 239.8786 C 733.0156 238.8586 721.4056 192.4486 717.0256 186.8186 L 718.9256 238.1886 C 717.7756 241.0386 702.0156 240.2886 702.0156 238.3186 L 702.0156 168.3086 L 703.5156 166.8086 C 707.0156 166.8086 722.8956 166.1486 724.5156 166.8086 Z" fill="#999"/>
      </g>
      <g id="Graphic_13">
        <path d="M 719.0156 606.8086 L 719.0156 535.3086 L 720.5156 533.8086 L 757.5156 533.8086 C 797.0656 533.8086 795.8356 606.8086 760.5156 606.8086 Z M 735.0156 593.8086 L 756.5156 593.8086 C 775.1056 593.8086 771.8556 547.8086 759.5156 547.8086 L 735.0156 547.8086 Z" fill="#999"/>
      </g>
      <g id="Graphic_12">
        <path d="M 601.5156 606.8086 C 565.9356 602.5186 565.3956 542.1986 598.8056 535.0986 C 603.3956 534.1186 632.0056 532.6486 634.0856 534.2486 C 635.5956 535.4086 635.5956 546.2086 634.0856 547.3786 C 628.0756 551.9986 591.1156 538.5686 593.0056 563.2786 C 593.8456 565.1186 628.2856 560.6886 633.3856 562.9586 C 636.6056 564.3986 634.4056 573.6086 635.0256 576.8186 L 593.0256 576.8186 C 592.1656 584.2886 597.0456 593.8186 605.5256 593.8186 L 635.0256 593.8186 C 635.6756 593.8186 635.6756 606.8186 635.0256 606.8186 C 624.9456 606.8186 611.0656 607.9686 601.5256 606.8186 Z" fill="#999"/>
      </g>
      <g id="Graphic_11">
        <path d="M 522.0156 562.8086 L 549.0156 562.8086 L 549.0156 535.3086 C 549.0156 535.1986 550.4056 533.8086 550.5156 533.8086 L 565.0156 533.8086 L 565.0156 606.8086 L 550.5156 606.8086 C 550.4056 606.8086 549.0156 605.4186 549.0156 605.3086 L 549.0156 576.8086 L 523.0156 576.8086 L 523.0156 605.3086 C 523.0156 605.4186 521.6256 606.8086 521.5156 606.8086 L 507.0156 606.8086 L 507.0156 533.8086 L 521.5156 533.8086 C 521.6256 533.8086 523.0156 535.1986 523.0156 535.3086 L 523.0156 561.3086 C 523.0156 561.6086 521.7556 562.0786 522.0156 562.8086 Z" fill="#999"/>
      </g>
      <g id="Graphic_10">
        <path d="M 590.0156 239.8086 C 593.6156 231.5986 617.6156 167.6686 621.4856 166.7286 C 622.6756 166.4386 636.2056 166.5586 636.8656 166.9586 C 640.2456 168.9786 662.4756 231.5386 667.0156 239.8086 L 650.5156 239.8086 C 648.4956 239.8086 644.6556 223.4386 643.9056 222.9286 C 642.6456 222.0686 615.2956 222.2886 613.4656 222.7386 C 610.6356 223.4386 607.5556 239.8186 605.5156 239.8186 L 590.0156 239.8186 Z M 638.0156 208.8086 L 627.0256 183.8086 L 618.0156 208.8086 Z" fill="#999"/>
      </g>
      <g id="Graphic_9">
        <path d="M 715.0156 606.8086 L 698.5156 606.8086 C 696.4356 606.8086 692.9556 591.0086 690.3756 589.9486 C 689.0356 589.3986 663.1256 589.3086 661.4856 589.7286 C 658.2556 590.5686 655.5056 606.8086 653.5156 606.8086 L 638.0156 606.8086 L 667.0956 535.3886 C 669.2256 533.0586 683.3156 532.3186 685.2556 536.0586 L 715.0056 606.8086 Z M 686.0156 575.8086 L 675.5156 550.7986 L 666.0156 575.8086 Z" fill="#999"/>
      </g>
      <g id="Graphic_8">
        <path d="M 425.0156 606.8086 C 428.8556 598.6586 452.6256 534.6786 456.4856 533.7286 C 458.0956 533.3386 471.0956 533.6086 472.1256 534.4286 C 476.0656 537.5786 497.1356 597.7486 502.0156 606.8086 L 485.5156 606.8086 C 483.4856 606.8086 480.3956 590.4286 477.5656 589.7286 C 475.7356 589.2786 448.3756 589.0586 447.1256 589.9186 C 446.3756 590.4286 442.7656 606.7986 440.5156 606.7986 L 425.0156 606.7986 Z M 473.0156 575.8086 L 462.0256 550.8086 L 453.0156 575.8086 Z" fill="#999"/>
      </g>
      <g id="Graphic_7">
        <path d="M 522.0156 401.8086 C 504.7256 401.9486 487.0656 391.8486 477.3856 377.9386 C 474.7256 374.1086 469.7256 360.4586 468.8756 359.9486 C 467.3456 359.0586 462.2856 360.4286 459.7156 359.6086 C 457.1456 358.7886 458.1756 355.6986 453.5856 354.7386 C 448.3356 353.6486 431.9156 354.5886 425.4756 354.7586 C 422.4056 354.8386 413.26562 360.9486 418.01562 350.2686 C 428.9156 354.3286 445.7656 349.3886 455.4956 351.8286 C 459.0256 352.7086 458.6456 355.9086 460.6956 356.6286 C 463.0356 357.4486 471.3556 356.2086 472.0156 356.8086 C 472.2556 357.0286 472.1056 361.3386 472.9656 363.3586 C 482.6656 386.1086 500.0456 398.2886 525.0256 399.7986 L 525.0256 429.7986 C 503.0156 429.3486 482.4156 423.5986 467.0056 407.3186 C 464.6656 404.8486 453.1156 390.3786 455.9756 388.2386 C 463.0256 382.9686 462.5456 403.2986 469.5456 405.7886 C 471.8556 406.4086 470.7556 403.0486 471.9356 401.1886 C 472.6756 400.0186 474.9656 399.9386 475.0256 399.7786 C 475.4156 398.6986 461.4356 382.3686 460.3456 381.9786 C 458.3956 381.2886 420.5456 380.3986 419.02562 381.8086 C 418.42562 382.3686 420.4556 391.2086 411.49562 391.8586 C 398.10562 392.8286 397.92562 374.2286 409.54562 373.7286 C 415.37562 373.4786 415.92562 377.9286 419.5456 378.7686 C 421.5156 379.2186 445.8956 379.5786 447.0156 378.7886 C 447.3556 378.5486 444.6856 376.3686 444.9356 374.3386 C 445.7356 367.9486 451.8356 373.5786 453.5756 373.7486 C 456.5156 374.0286 463.7156 373.1286 465.3856 373.7486 C 467.2056 374.4186 465.2556 379.5186 469.0156 378.7986 C 467.7356 376.8986 464.2256 368.0786 463.3356 367.7686 C 462.1156 367.3486 439.2356 367.3986 437.5056 367.7986 C 434.8656 368.3986 435.0156 372.2386 430.5056 371.8586 C 422.5256 371.1886 424.2556 360.9286 430.5356 360.8986 C 434.2256 360.8786 434.0956 364.3386 436.5156 364.8886 C 443.7156 366.5186 457.3856 363.5386 465.3556 364.7686 C 471.2856 379.1986 484.2656 395.3686 499.0556 401.2886 C 503.1056 402.9086 520.0356 405.2286 520.0356 406.3086 L 520.0356 422.8086 C 512.6656 422.5686 505.5056 421.1086 498.5256 418.8186 C 490.0956 416.0486 482.4556 408.7786 477.3056 407.0386 C 464.3356 402.6486 479.4356 414.7086 482.7356 416.6086 C 494.4756 423.3586 508.5856 426.0986 522.0356 426.8086 L 522.0356 401.8086 Z M 467.0056 383.7986 C 465.8356 374.8686 456.1356 374.5786 450.0156 378.3086 C 458.1856 378.9086 460.9856 377.7286 467.0056 383.7986 Z M 471.2656 380.7886 C 471.2656 380.1086 470.7156 379.5586 470.0356 379.5586 C 469.3556 379.5586 468.8056 380.1086 468.8056 380.7886 C 468.8056 381.4686 469.3556 382.0186 470.0356 382.0186 C 470.7156 382.0186 471.2656 381.4686 471.2656 380.7886 Z M 473.2656 383.7886 C 473.2656 383.1086 472.7156 382.5586 472.0356 382.5586 C 471.3556 382.5586 470.8056 383.1086 470.8056 383.7886 C 470.8056 384.4686 471.3556 385.0186 472.0356 385.0186 C 472.7156 385.0186 473.2656 384.4686 473.2656 383.7886 Z M 469.2656 385.7886 C 469.2656 385.1086 468.7156 384.5586 468.0356 384.5586 C 467.3556 384.5586 466.8056 385.1086 466.8056 385.7886 C 466.8056 386.4686 467.3556 387.0186 468.0356 387.0186 C 468.7156 387.0186 469.2656 386.4686 469.2656 385.7886 Z M 470.7856 388.0486 L 469.2556 389.5786 L 473.2456 393.5686 L 474.7756 392.0386 Z M 476.7856 388.0486 L 475.2556 389.5786 L 481.2456 395.5686 L 482.7756 394.0386 Z M 487.0056 398.7986 C 488.0256 397.7886 485.0456 394.7886 484.0156 395.8086 C 482.9856 396.8286 485.9756 399.8186 487.0056 398.7986 Z M 480.2656 397.7886 C 480.2656 397.1086 479.7156 396.5586 479.0356 396.5586 C 478.3556 396.5586 477.8056 397.1086 477.8056 397.7886 C 477.8056 398.4686 478.3556 399.0186 479.0356 399.0186 C 479.7156 399.0186 480.2656 398.4686 480.2656 397.7886 Z M 490.2656 399.7886 C 490.2656 399.1086 489.7156 398.5586 489.0356 398.5586 C 488.3556 398.5586 487.8056 399.1086 487.8056 399.7886 C 487.8056 400.4686 488.3556 401.0186 489.0356 401.0186 C 489.7156 401.0186 490.2656 400.4686 490.2656 399.7886 Z M 485.2656 401.7886 C 485.2656 401.1086 484.7156 400.5586 484.0356 400.5586 C 483.3556 400.5586 482.8056 401.1086 482.8056 401.7886 C 482.8056 402.4686 483.3556 403.0186 484.0356 403.0186 C 484.7156 403.0186 485.2656 402.4686 485.2656 401.7886 Z M 518.0156 419.8086 C 520.1056 403.2586 514.1156 409.5786 503.2156 406.0986 C 498.9356 404.7386 495.4056 401.8086 491.0156 400.8086 C 491.8256 404.2186 499.2056 406.2886 502.0556 407.2586 C 505.2956 408.3486 515.5256 409.2886 516.0156 409.8086 C 516.2556 410.0586 516.2656 416.5686 516.0156 416.8186 C 512.6156 420.2986 485.2856 408.2286 481.0156 404.8186 C 482.4156 412.4186 516.0456 421.8886 518.0056 419.8186 Z M 479.0056 403.7986 C 479.7156 402.7986 478.5656 401.0486 478.0256 401.8086 C 477.3156 402.8086 478.4656 404.5586 479.0056 403.7986 Z M 487.9956 402.8386 C 481.2956 403.1686 495.6356 409.3086 497.3356 409.9886 C 502.2856 411.9586 507.5856 413.8186 513.0056 413.7986 C 505.0256 409.8186 494.5256 409.8186 487.9856 402.8386 Z" fill="#999"/>
      </g>
      <g id="Graphic_6">
        <path d="M 525.0156 297.8086 L 525.0156 393.3086 C 525.0156 396.7086 512.1956 393.5586 510.2356 393.0886 C 454.5256 379.4586 467.1756 295.1686 525.0156 297.8086 Z M 521.0156 325.8086 L 521.0156 302.8086 C 512.3956 306.5886 506.1456 313.6486 501.0356 321.3086 Z M 511.0156 303.8186 C 502.8956 305.1286 496.0256 309.9786 490.0356 315.3086 C 498.7956 326.5386 503.5256 308.8486 511.0156 303.8186 Z M 490.8956 344.6786 C 491.8556 344.0186 492.4156 326.9386 495.8856 324.2786 C 482.7156 310.2886 480.0456 333.1786 478.1656 343.2286 C 478.9156 345.6186 490.2756 345.1086 490.8956 344.6786 Z M 521.0156 329.8086 C 517.6256 330.9786 500.1156 325.3686 499.1356 325.8986 C 497.2956 326.9086 495.1756 341.8586 495.0156 344.8086 L 521.0156 344.8086 Z M 490.8956 347.9386 C 489.5856 347.0286 480.5056 348.3286 478.0156 347.8186 C 478.5156 356.3586 481.0056 364.3386 485.0456 371.7986 C 486.6056 370.2586 494.7056 368.2286 495.0256 367.7986 C 495.6356 366.9886 491.7356 348.5186 490.9056 347.9386 Z M 521.0156 347.8086 L 495.0156 347.8086 C 495.7356 373.1686 502.1756 362.6586 521.0156 363.8086 Z M 521.0156 367.8086 L 506.5156 367.8086 C 505.5356 367.8086 502.8756 369.6086 501.0056 368.8086 C 503.4556 378.1486 512.5656 385.6286 521.0156 389.8086 Z M 496.9156 370.8686 C 495.8956 370.4086 488.0856 374.5486 488.0356 375.3086 C 487.8756 377.4786 506.7556 390.1086 511.0156 388.7986 C 507.0656 387.2886 497.9556 371.3486 496.9156 370.8686 Z" fill="#999"/>
      </g>
      <g id="Graphic_5">
        <path d="M 463.0256 347.8186 C 456.5356 348.0386 449.9656 347.5086 443.4756 347.7686 C 440.9256 347.8686 437.6256 351.6886 435.4656 348.8686 C 427.8556 338.9186 456.2156 347.2186 459.9556 344.7486 C 460.7656 334.1686 463.4256 324.3286 468.0156 314.8286 C 462.0556 316.1986 459.9956 338.2086 458.3356 338.8586 C 449.0856 342.4986 449.1356 333.5886 447.5856 333.1286 C 446.7456 332.8786 430.9556 332.6386 430.1356 332.9486 C 429.5056 333.1786 429.0656 338.9486 422.7656 337.6586 C 415.09563 336.0886 418.48562 325.6986 424.4256 325.8286 C 428.6056 325.9186 429.5756 330.4886 430.7556 330.8486 C 434.8256 332.0986 447.0856 329.4886 450.3956 330.7786 C 452.0856 331.4386 450.2456 338.1486 457.0156 335.8186 L 465.0256 310.8486 C 460.6456 311.4286 460.2256 321.4186 457.3856 322.6986 C 455.0956 323.7286 441.9956 326.4686 445.1056 319.4786 C 447.2556 314.6386 452.9756 321.3786 456.0656 319.3986 C 456.7456 318.9586 458.4556 314.4786 458.0156 313.8486 C 457.7856 313.5086 452.1156 316.3786 453.1556 309.5586 C 466.1156 296.7386 475.4456 283.1586 493.3556 275.6686 C 497.5156 273.9286 516.0156 267.8686 519.0956 270.2886 C 520.6156 271.4786 520.5956 285.3386 519.0956 286.4186 C 518.5056 286.8486 509.9456 287.4186 507.0456 288.3686 C 480.5556 297.0186 462.4056 319.1486 463.0356 347.8586 Z M 517.0156 272.8086 C 504.6656 273.1486 493.8156 278.7786 483.0156 283.8286 C 482.9656 287.5986 493.6456 280.1386 496.7556 279.0586 C 499.0756 278.2486 513.1456 273.8586 514.0056 274.8186 C 514.2356 275.0786 514.2056 281.1386 513.8656 281.6786 C 513.0956 282.8986 490.0656 287.6586 487.2756 292.5886 L 485.0156 295.8086 C 490.7256 293.1186 495.8356 289.4086 501.7556 287.0586 C 512.8656 282.6586 519.4156 288.1886 517.0156 272.8086 Z M 511.0156 279.7986 C 511.0956 279.7386 511.4156 277.9286 510.5356 277.8286 C 506.4456 277.3586 485.5356 286.9986 482.1056 290.3986 L 480.0256 293.8086 C 485.3356 286.3586 507.2056 282.6086 511.0156 279.7986 Z M 482.0056 286.8186 C 481.8256 286.6986 479.1556 286.7186 479.0156 286.8186 C 477.2356 288.1186 483.7856 287.9886 482.0056 286.8186 Z M 477.0056 289.8186 C 475.9956 288.7986 472.9956 291.7786 474.0156 292.8086 C 475.0356 293.8386 478.0256 290.8486 477.0056 289.8186 Z M 479.0056 293.8186 C 477.9856 292.7986 470.6056 299.6886 471.0156 301.8086 C 472.1456 302.9386 480.1356 294.9486 479.0056 293.8186 Z M 484.0056 295.8186 C 483.0256 294.8486 478.3556 298.9686 479.0156 300.8086 C 480.1256 301.9086 485.1056 296.9086 484.0056 295.8186 Z M 469.0056 297.8186 C 467.9956 296.7986 464.9956 299.7786 466.0156 300.8086 C 467.0356 301.8386 470.0256 298.8486 469.0056 297.8186 Z M 465.2656 303.7886 C 465.2656 303.1086 464.7156 302.5586 464.0356 302.5586 C 463.3556 302.5586 462.8056 303.1086 462.8056 303.7886 C 462.8056 304.4686 463.3556 305.0186 464.0356 305.0186 C 464.7156 305.0186 465.2656 304.4686 465.2656 303.7886 Z M 477.0056 302.8186 C 476.0256 301.8486 471.3556 305.9686 472.0156 307.8086 C 473.1256 308.9086 478.1056 303.9086 477.0056 302.8186 Z M 470.0056 303.8186 C 468.9956 302.7986 465.9956 305.7786 467.0156 306.8086 C 468.0356 307.8386 471.0256 304.8486 470.0056 303.8186 Z M 463.0056 305.8186 C 461.4256 304.1486 458.9456 309.2486 460.0256 310.8086 C 461.3456 310.8086 463.4356 306.2786 463.0056 305.8186 Z M 467.2656 308.7886 C 467.2656 308.1086 466.7156 307.5586 466.0356 307.5586 C 465.3556 307.5586 464.8056 308.1086 464.8056 308.7886 C 464.8056 309.4686 465.3556 310.0186 466.0356 310.0186 C 466.7156 310.0186 467.2656 309.4686 467.2656 308.7886 Z M 470.5456 307.9786 L 467.5356 313.2486 L 469.6256 314.4386 L 472.6356 309.1686 Z" fill="#999"/>
      </g>
      <g id="Graphic_4">
        <rect x="672.0156" y="166.8086" width="16" height="73" fill="#999"/>
      </g>
      <g id="Graphic_3">
        <path d="M 525.0156 292.8086 C 494.7556 293.4986 470.6056 313.0186 469.9056 344.3986 C 469.8556 346.4386 476.8156 354.8786 466.2856 352.5786 C 464.6656 318.6186 487.1556 292.2486 522.0156 289.8186 L 522.0156 264.8186 C 503.9256 265.4586 480.7756 274.2886 468.0156 287.3186 C 464.2456 291.1686 458.6756 306.7386 457.4556 290.7586 C 469.4956 284.1086 477.9256 274.9186 490.9956 269.2986 C 501.1956 264.9086 514.6056 260.4986 525.0156 263.3186 L 525.0156 292.8186 Z" fill="#999"/>
      </g>
      <g id="Graphic_2">
        <path d="M 596.0156 294.8086 L 560.5156 294.8086 C 560.3356 294.8086 558.0156 292.4886 558.0156 292.3086 L 558.0156 266.8086 C 561.0956 267.1786 571.9556 272.1186 573.1156 274.2686 C 575.2356 278.1986 566.4556 284.9786 577.6856 289.6886 C 583.4956 292.1286 589.1556 278.8386 596.0156 294.8086 Z" fill="#999"/>
      </g>
    </g>
  </g>
</svg>
