<?xml version="1.0" encoding="UTF-8"?>
<svg id="Layer_1" xmlns="http://www.w3.org/2000/svg" version="1.1" viewBox="0 0 1278.3 996.6">
  <!-- Generator: Adobe Illustrator 30.4.0, SVG Export Plug-In . SVG Version: 2.1.4 Build 226)  -->
  <defs>
    <style>
      .st0 {
        fill: #76b900;
      }
    </style>
  </defs>
  <g id="NVIDIA_Logo">
    <path id="NVIDIA" d="M545.1,737.8v228.6h64.6v-228.6h-64.6s0,0,0,0ZM37.2,737.5v228.9h65.1v-173.8h50.5c16.7,0,28.6,4.2,36.7,12.8,10.2,10.9,14.4,28.4,14.4,60.5v100.5h63.1s0-126.5,0-126.5c0-90.3-57.5-102.5-113.8-102.5H37.2M649.1,737.8v228.6h104.7c55.8,0,74-9.3,93.7-30.1,13.9-14.6,22.9-46.7,22.9-81.7s-7.6-60.8-20.9-78.7c-23.9-31.9-58.4-38.2-109.8-38.2h-90.6ZM713.2,787.6h27.8c40.3,0,66.3,18.1,66.3,65s-26,65-66.3,65h-27.8v-130h0ZM452,737.8l-53.9,181.2-51.6-181.2h-69.7s73.7,228.6,73.7,228.6h93.1l74.3-228.6h-65.9ZM900.5,966.4h64.6v-228.6h-64.6s0,228.6,0,228.6h0ZM1081.5,737.9l-90.2,228.5h63.7l14.3-40.4h106.7l13.5,40.4h69.1l-90.9-228.5h-86.3s0,0,0,0ZM1123.4,779.5l39.1,107h-79.5l40.3-107h0Z"/>
    <path id="Eye_Mark" class="st0" d="M459.8,202.2v-54.9c5.3-.4,10.7-.7,16.2-.8,150.2-4.7,248.8,129.1,248.8,129.1,0,0-106.4,147.8-220.6,147.8s-31.1-2.6-44.4-7.1v-166.6c58.5,7.1,70.2,32.9,105.4,91.5l78.2-65.9s-57.1-74.9-153.3-74.9-20.5.7-30.3,1.8M459.8,20.8v82c5.4-.4,10.8-.8,16.2-1,208.9-7,345,171.3,345,171.3,0,0-156.3,190.1-319.2,190.1s-28.9-1.4-42-3.7v50.7c11.2,1.4,22.9,2.3,35,2.3,151.6,0,261.2-77.4,367.3-169,17.6,14.1,89.6,48.4,104.4,63.4-100.9,84.5-336.1,152.6-469.4,152.6s-25.2-.8-37.3-1.9v71.3h576.1V20.8H459.8ZM459.8,416.3v43.3c-140.2-25-179.1-170.7-179.1-170.7,0,0,67.3-74.6,179.1-86.7v47.5c0,0-.1,0-.2,0-58.7-7-104.5,47.8-104.5,47.8,0,0,25.7,92.3,104.7,118.8M210.8,282.6s83.1-122.6,249-135.3v-44.5c-183.7,14.7-342.9,170.4-342.9,170.4,0,0,90.1,260.5,342.9,284.4v-47.3c-185.5-23.3-249-227.7-249-227.7h0Z"/>
  </g>
</svg>