<?xml version="1.0" encoding="UTF-8" standalone="no"?>
<!DOCTYPE svg PUBLIC "-//W3C//DTD SVG 1.1//EN" "http://www.w3.org/Graphics/SVG/1.1/DTD/svg11.dtd">
<svg version="1.1" xmlns:xl="http://www.w3.org/1999/xlink" xmlns="http://www.w3.org/2000/svg" xmlns:dc="http://purl.org/dc/elements/1.1/" viewBox="93 273 918 480" width="918" height="480">
  <defs>
    <marker orient="auto" overflow="visible" markerUnits="strokeWidth" id="FilledArrow_Marker" stroke-linejoin="miter" stroke-miterlimit="10" viewBox="-1 -3 7 6" markerWidth="7" markerHeight="6" color="#c62f24">
      <g>
        <path d="M 4.8 0 L 0 -1.8 L 0 1.8 Z" fill="currentColor" stroke="currentColor" stroke-width="1"/>
      </g>
    </marker>
    <marker orient="auto" overflow="visible" markerUnits="strokeWidth" id="FilledArrow_Marker_2" stroke-linejoin="miter" stroke-miterlimit="10" viewBox="-1 -3 7 6" markerWidth="7" markerHeight="6" color="#009bda">
      <g>
        <path d="M 4.8 0 L 0 -1.8 L 0 1.8 Z" fill="currentColor" stroke="currentColor" stroke-width="1"/>
      </g>
    </marker>
    <marker orient="auto" overflow="visible" markerUnits="strokeWidth" id="FilledArrow_Marker_3" stroke-linejoin="miter" stroke-miterlimit="10" viewBox="-1 -3 7 6" markerWidth="7" markerHeight="6" color="#c62f24">
      <g>
        <path d="M 4.8 0 L 0 -1.8 L 0 1.8 Z" fill="currentColor" stroke="currentColor" stroke-width="1"/>
      </g>
    </marker>
    <marker orient="auto" overflow="visible" markerUnits="strokeWidth" id="FilledArrow_Marker_4" stroke-linejoin="miter" stroke-miterlimit="10" viewBox="-1 -3 7 6" markerWidth="7" markerHeight="6" color="#029bdb">
      <g>
        <path d="M 4.8 0 L 0 -1.8 L 0 1.8 Z" fill="currentColor" stroke="currentColor" stroke-width="1"/>
      </g>
    </marker>
  </defs>
  <g id="Canvas_1" stroke-opacity="1" stroke-dasharray="none" fill="none" fill-opacity="1" stroke="none">
    <title>Canvas 1</title>
    <g id="Canvas_1_Layer_1">
      <title>Layer 1</title>
      <g id="Line_8">
        <path d="M 371.6508 473.67796 L 420 473.67796 C 425.52285 473.67796 430 478.1551 430 483.67796 L 430 497.94245 C 430 503.4653 434.47715 507.94245 440 507.94245 L 546.8586 507.94245" stroke="#c62f24" stroke-linecap="round" stroke-linejoin="round" stroke-width="2"/>
      </g>
      <g id="Line_17">
        <line x1="198.72383" y1="453.7638" x2="198.72383" y2="468.67796" stroke="black" stroke-linecap="round" stroke-linejoin="round" stroke-width="1"/>
      </g>
      <g id="Line_19">
        <path d="M 151.6941 527.8839 L 151.6716 488.67797 L 151.6716 478.67797" stroke="black" stroke-linecap="round" stroke-linejoin="round" stroke-width="1"/>
      </g>
      <g id="Line_7">
        <path d="M 278.8618 473.67796 L 316.2941 473.67796 C 321.81697 473.67796 326.2941 469.2008 326.2941 463.67796 L 326.2941 411.64477 C 326.2941 406.1219 330.77127 401.64477 336.2941 401.64477 L 437.4018 401.64477" stroke="#009bda" stroke-linecap="round" stroke-linejoin="round" stroke-width="2"/>
      </g>
      <g id="Graphic_10">
        <circle cx="413.268" cy="401.64477" r="5.00000798950947" fill="#029bdb"/>
      </g>
      <g id="Line_3">
        <line x1="135.09523" y1="473.67796" x2="379.9479" y2="473.67796" stroke="#666" stroke-linecap="round" stroke-linejoin="miter" stroke-width="2"/>
      </g>
      <g id="Graphic_4">
        <circle cx="151.6716" cy="473.67796" r="5.00000798950949" fill="#333"/>
      </g>
      <g id="Graphic_5">
        <circle cx="198.72383" cy="473.67796" r="5.00000798950949" fill="#333"/>
      </g>
      <g id="Graphic_6">
        <circle cx="309.1086" cy="473.67796" r="5.00000798950949" fill="#333"/>
      </g>
      <g id="Line_24">
        <line x1="309.1086" y1="379.8251" x2="309.1086" y2="468.67796" stroke="black" stroke-linecap="round" stroke-linejoin="round" stroke-width="1"/>
      </g>
      <g id="Graphic_26">
        <circle cx="341.51566" cy="473.67796" r="5.00000798950949" fill="#333"/>
      </g>
      <g id="Line_28">
        <line x1="341.51566" y1="478.67797" x2="341.51566" y2="492.42227" stroke="black" stroke-linecap="round" stroke-linejoin="round" stroke-width="1"/>
      </g>
      <g id="Line_40">
        <path d="M 430 490.59874 L 430 578.5179 C 430 582.4862 433.21694 585.7031 437.18523 585.7031 L 444.347 585.7031 C 444.36263 585.7031 444.3783 585.70316 444.39395 585.70324 L 519.0555 586.05395 C 519.07115 586.054 519.0868 586.05406 519.10246 586.05406 L 535.079 586.05406" stroke="#c62f24" stroke-linecap="round" stroke-linejoin="round" stroke-width="2"/>
      </g>
      <g id="Graphic_37">
        <circle cx="487.08887" cy="585.9038" r="5.00000798950946" fill="#c72f24"/>
      </g>
      <g id="Line_44">
        <line x1="535.079" y1="586.05406" x2="579.55444" y2="586.05406" marker-end="url(#FilledArrow_Marker)" stroke="#c62f24" stroke-linecap="round" stroke-linejoin="round" stroke-dasharray="4.0,4.0" stroke-width="2"/>
      </g>
      <g id="Line_51">
        <line x1="487.08887" y1="590.9038" x2="487.0889" y2="606.2745" stroke="#c62f24" stroke-linecap="round" stroke-linejoin="round" stroke-width="1"/>
      </g>
      <g id="Line_53">
        <path d="M 355.04626 401.64477 L 445.13737 401.64477 C 450.6602 401.64477 455.13737 406.1219 455.13737 411.64477 L 455.13737 421.86275 C 455.13737 427.3856 459.6145 431.86275 465.1374 431.86275 L 579.31204 431.86275" marker-end="url(#FilledArrow_Marker_2)" stroke="#009bda" stroke-linecap="round" stroke-linejoin="round" stroke-dasharray="4.0,4.0" stroke-width="2"/>
      </g>
      <g id="Line_54">
        <line x1="544.8787" y1="507.7758" x2="579.31204" y2="507.7758" marker-end="url(#FilledArrow_Marker)" stroke="#c62f24" stroke-linecap="round" stroke-linejoin="round" stroke-dasharray="4.0,4.0" stroke-width="2"/>
      </g>
      <g id="Group_145">
        <g id="Graphic_13">
          <text transform="translate(108.93115 396.5038)" fill="#666">
            <tspan font-family="Helvetica Neue" font-size="16" fill="#666" x="0" y="15" xml:space="preserve">Optimizing Large-Scale </tspan>
            <tspan font-family="Helvetica Neue" font-size="16" fill="#666" x="0" y="33.448" xml:space="preserve">Data Analytics with ML </tspan>
            <tspan font-family="Helvetica Neue" font-size="13" fill="#666" x="0" y="49.895996" xml:space="preserve">[TPDS’20, SoCC’18, HotCloud’17]</tspan>
          </text>
        </g>
        <g id="Graphic_56">
          <rect x="98.93115" y="395.8127" width="5" height="53.642196" fill="#999"/>
        </g>
      </g>
      <g id="Graphic_11">
        <text transform="translate(108.93115 532.8839)" fill="#666">
          <tspan font-family="Helvetica Neue" font-size="16" fill="#666" x="0" y="15" xml:space="preserve">Datacenter Networking</tspan>
          <tspan font-family="Helvetica Neue" font-size="13" fill="#666" x="0" y="31.447998" xml:space="preserve">[ToN’15-17, NSDI’15, </tspan>
          <tspan font-family="Helvetica Neue" font-size="13" fill="#666" x="0" y="47.82509" xml:space="preserve">EuroSys’15, ICDCS’15]</tspan>
        </text>
      </g>
      <g id="Graphic_57">
        <rect x="98.93115" y="532.5619" width="5" height="52.904067" fill="#999"/>
      </g>
      <g id="Group_149">
        <g id="Graphic_23">
          <text transform="translate(289.2319 278.5)" fill="#04cd66">
            <tspan font-family="Helvetica Neue" font-size="16" fill="#04cd66" x="0" y="15" xml:space="preserve">Accelerating Serverless Computing </tspan>
            <tspan font-family="Helvetica Neue" font-size="13" fill="#04cd66" y="15" xml:space="preserve">[VLDB’25, </tspan>
            <tspan font-family="Helvetica Neue" font-size="13" fill="#04cd66" x="0" y="31.447998" xml:space="preserve">SC’24, ASPLOS’24, HPDC’23, WebConf’22]</tspan>
          </text>
        </g>
        <g id="Graphic_63">
          <rect x="276.34314" y="280.31" width="6.355113" height="33.276" fill="#04cd66"/>
        </g>
      </g>
      <g id="Graphic_29">
        <text transform="translate(451.0731 611.5251)" fill="#04cd66">
          <tspan font-family="Helvetica Neue" font-size="16" fill="#04cd66" x="0" y="15" xml:space="preserve">Attacking &amp; Defending in AI</tspan>
          <tspan font-family="Helvetica Neue" font-size="13" fill="#04cd66" y="15" xml:space="preserve"> </tspan>
          <tspan font-family="Helvetica Neue" font-size="13" fill="#04cd66" x="0" y="31.447998" xml:space="preserve">[SoCC’21, AAAI’23, ICDF2C’23, AsiaCCS’23, ICLR’24, KDD’24, ECCV’24 RAID’24]</tspan>
        </text>
      </g>
      <g id="Graphic_64">
        <rect x="440.69444" y="612.29966" width="5" height="33.276" fill="#04cd66"/>
      </g>
      <g id="Graphic_42">
        <text transform="translate(452.30877 531.3553)" fill="#04cd66">
          <tspan font-family="Helvetica Neue" font-size="16" fill="#04cd66" x="0" y="15" xml:space="preserve">Personalized Federated Learning </tspan>
          <tspan font-family="Helvetica Neue" font-size="13" fill="#04cd66" x="0" y="31.447998" xml:space="preserve">[KDD’23, AAAI’23, ICCV’23, NeurIPS’23]</tspan>
        </text>
      </g>
      <g id="Graphic_66">
        <rect x="440.69444" y="532.12985" width="5" height="33.276" fill="#04cd66"/>
      </g>
      <g id="Line_68">
        <line x1="461.9021" y1="512.94245" x2="461.9021" y2="526.3553" stroke="#c62f24" stroke-linecap="round" stroke-linejoin="round" stroke-width="1"/>
      </g>
      <g id="Graphic_41">
        <text transform="translate(611.1391 570.3856)" fill="black">
          <tspan font-family="Helvetica Neue" font-size="16" fill="black" x="0" y="15" xml:space="preserve">AI Security &amp; Forensics </tspan>
        </text>
      </g>
      <g id="Line_86">
        <line x1="413.0355" y1="402.1495" x2="413.0355" y2="318.5" stroke="#009cdb" stroke-linecap="round" stroke-linejoin="round" stroke-width="1"/>
      </g>
      <g id="Graphic_89">
        <text transform="translate(611.2276 351.9104)" fill="black">
          <tspan font-family="Helvetica Neue" font-size="16" fill="black" x="0" y="15" xml:space="preserve">Serverless High-performance Computing</tspan>
        </text>
      </g>
      <g id="Line_91">
        <path d="M 445.26163 507.94245 L 470.7709 507.94245 C 476.29375 507.94245 480.7709 503.4653 480.7709 497.94245 L 480.7709 456.64036 C 480.7709 451.1175 485.24806 446.64036 490.7709 446.64036 L 579.4333 446.64036" marker-end="url(#FilledArrow_Marker_3)" stroke="#c62f24" stroke-linecap="round" stroke-linejoin="round" stroke-width="2"/>
      </g>
      <g id="Line_92">
        <line x1="468.2821" y1="367.30547" x2="579.5547" y2="366.6239" marker-end="url(#FilledArrow_Marker_4)" stroke="#029bdb" stroke-linecap="round" stroke-linejoin="round" stroke-width="2"/>
      </g>
      <g id="Graphic_49">
        <text transform="translate(610.8787 488.7927)" fill="black">
          <tspan font-family="Helvetica Neue" font-size="16" fill="black" x="0" y="15" xml:space="preserve">Federated Analytics </tspan>
        </text>
      </g>
      <g id="Graphic_111">
        <circle cx="410.91624" cy="473.67796" r="5.00000798950949" fill="#c72f24"/>
      </g>
      <g id="Line_110">
        <line x1="410.91624" y1="478.67797" x2="410.91624" y2="551.5456" stroke="#c62f24" stroke-linecap="round" stroke-linejoin="round" stroke-width="1"/>
      </g>
      <g id="Graphic_30">
        <circle cx="461.9021" cy="507.94245" r="5.00000798950949" fill="#c72f24"/>
      </g>
      <g id="Line_115">
        <path d="M 406.6598 401.64477 L 446.9021 401.64477 C 452.4249 401.64477 456.9021 397.1676 456.9021 391.64477 L 456.9021 377.30547 C 456.9021 371.7826 461.37923 367.30547 466.9021 367.30547 L 470.9479 367.30547 C 476.47073 367.30547 480.9479 362.8283 480.9479 357.30547 L 480.9479 332.73266 C 480.9479 327.2098 485.42504 322.73266 490.9479 322.73266 L 579.6609 322.73266" marker-end="url(#FilledArrow_Marker_2)" stroke="#009bda" stroke-linecap="round" stroke-linejoin="round" stroke-width="2"/>
      </g>
      <g id="Graphic_116">
        <text transform="translate(611.42615 303.62905)" fill="black">
          <tspan font-family="Helvetica Neue" font-size="16" fill="black" x="0" y="15" xml:space="preserve">Hybrid Serverless Architectures for Deep Learning</tspan>
        </text>
      </g>
      <g id="Graphic_118">
        <rect x="601.2276" y="305.4628" width="5.198571" height="38.85542" fill="#04cd66"/>
      </g>
      <g id="Graphic_119">
        <circle cx="515.571" cy="322.73266" r="5.00000798950947" fill="#029bdb"/>
      </g>
      <g id="Graphic_27">
        <text transform="translate(216.49493 491.1418)" fill="#666">
          <tspan font-family="Helvetica Neue" font-size="16" fill="#666" x="0" y="15" xml:space="preserve">Federated Learning </tspan>
          <tspan font-family="Helvetica Neue" font-size="13" fill="#666" x="0" y="31.447998" xml:space="preserve">[</tspan>
          <tspan font-family="Helvetica Neue" font-size="13" fill="#04cd66" y="31.447998" xml:space="preserve">TWC’23, KDD’23</tspan>
          <tspan font-family="Helvetica Neue" font-size="13" fill="#666" y="31.447998" xml:space="preserve">, INFOCOM’20]</tspan>
        </text>
      </g>
      <g id="Group_168">
        <g id="Graphic_61">
          <rect x="204.71876" y="493.6418" width="5" height="33.276" fill="#999"/>
        </g>
        <g id="Graphic_120">
          <rect x="204.71876" y="510.9381" width="5" height="16" fill="#04cd66"/>
        </g>
      </g>
      <g id="Graphic_122">
        <circle cx="559.76346" cy="586.05406" r="5.00000798950945" fill="white"/>
        <path d="M 563.299 582.5185 C 565.2516 584.47115 565.2516 587.637 563.299 589.5896 C 561.3464 591.5422 558.18055 591.5422 556.2279 589.5896 C 554.2753 587.637 554.2753 584.47115 556.2279 582.5185 C 558.18055 580.5659 561.3464 580.5659 563.299 582.5185" stroke="#c62f23" stroke-linecap="round" stroke-linejoin="miter" stroke-dasharray="3.0,3.0" stroke-width="1.5"/>
      </g>
      <g id="Group_154">
        <g id="Graphic_99">
          <path d="M 108.93115 618.8631 L 321.98147 618.8631 C 327.5043 618.8631 331.98147 623.3402 331.98147 628.8631 L 331.98147 672.1362 C 331.98147 677.659 327.5043 682.1362 321.98147 682.1362 L 108.93115 682.1362 C 103.4083 682.1362 98.93115 677.659 98.93115 672.1362 L 98.93115 628.8631 C 98.93115 623.3402 103.4083 618.8631 108.93115 618.8631 Z" fill="#f2f2f2"/>
        </g>
        <g id="Graphic_77">
          <rect x="110.1935" y="629.1304" width="5" height="16" fill="#999"/>
        </g>
        <g id="Graphic_78">
          <text transform="translate(120.1935 627.9064)" fill="#666">
            <tspan font-family="Helvetica Neue" font-size="16" fill="#666" x="0" y="15" xml:space="preserve">Before 2021 </tspan>
          </text>
        </g>
        <g id="Graphic_82">
          <rect x="218.26247" y="629.1304" width="5" height="16" fill="#04cd66"/>
        </g>
        <g id="Graphic_81">
          <text transform="translate(228.26247 627.9064)" fill="#04cd66">
            <tspan font-family="Helvetica Neue" font-size="16" fill="#04cd66" x="0" y="15" xml:space="preserve">2021-current </tspan>
          </text>
        </g>
        <g id="Graphic_84">
          <rect x="110.1935" y="657.07656" width="5" height="16" fill="#f26077"/>
        </g>
        <g id="Graphic_83">
          <text transform="translate(120.1935 655.85256)" fill="#f36177">
            <tspan font-family="Helvetica Neue" font-size="16" fill="#f36177" x="0" y="15" xml:space="preserve">Future</tspan>
          </text>
        </g>
        <g id="Graphic_125">
          <circle cx="190.81925" cy="665.07656" r="5.00000798950948" fill="white"/>
          <path d="M 194.35478 661.541 C 196.30741 663.49365 196.30741 666.6595 194.35478 668.6121 C 192.40216 670.5647 189.23634 670.5647 187.28372 668.6121 C 185.3311 666.6595 185.3311 663.49365 187.28372 661.541 C 189.23634 659.5884 192.40216 659.5884 194.35478 661.541" stroke="#029bdb" stroke-linecap="round" stroke-linejoin="miter" stroke-dasharray="3.0,3.0" stroke-width="1.5"/>
        </g>
        <g id="Graphic_126">
          <circle cx="196.81925" cy="665.07656" r="5.00000798950949" fill="white"/>
          <path d="M 200.35478 661.541 C 202.30741 663.49365 202.30741 666.6595 200.35478 668.6121 C 198.40216 670.5647 195.23634 670.5647 193.28372 668.6121 C 191.3311 666.6595 191.3311 663.49365 193.28372 661.541 C 195.23634 659.5884 198.40216 659.5884 200.35478 661.541" stroke="#c62f23" stroke-linecap="round" stroke-linejoin="miter" stroke-dasharray="3.0,3.0" stroke-width="1.5"/>
        </g>
        <g id="Graphic_127">
          <text transform="translate(205.70873 655.85256)" fill="black">
            <tspan font-family="Helvetica Neue" font-size="16" fill="black" x="0" y="15" xml:space="preserve">Work in Review</tspan>
          </text>
        </g>
      </g>
      <g id="Graphic_130">
        <circle cx="536.1148" cy="366.89" r="5.00000798950949" fill="white"/>
        <path d="M 539.6503 363.35445 C 541.60296 365.30707 541.60296 368.4729 539.6503 370.4255 C 537.6977 372.37814 534.5319 372.37814 532.5793 370.4255 C 530.62664 368.4729 530.62664 365.30707 532.5793 363.35445 C 534.5319 361.4018 537.6977 361.4018 539.6503 363.35445" stroke="#029bdb" stroke-linecap="round" stroke-linejoin="miter" stroke-dasharray="3.0,3.0" stroke-width="1.5"/>
      </g>
      <g id="Graphic_108">
        <text transform="translate(259.3846 556.5456)" fill="#04cd66">
          <tspan font-family="Helvetica Neue" font-size="16" fill="#04cd66" x="0" y="15" xml:space="preserve">Adversarial Learning </tspan>
          <tspan font-family="Helvetica Neue" font-size="13" fill="#04cd66" x="0" y="31.447998" xml:space="preserve">[CVPR’24, AAAI’22, ICCV’22, </tspan>
          <tspan font-family="Helvetica Neue" font-size="13" fill="#04cd66" x="0" y="47.82509" xml:space="preserve">IJCAI’21]</tspan>
        </text>
      </g>
      <g id="Graphic_133">
        <rect x="248.6923" y="557.3201" width="5" height="49.89811" fill="#04cd66"/>
      </g>
      <g id="Graphic_21">
        <text transform="translate(120.5 340)" fill="#666">
          <tspan font-family="Helvetica Neue" font-size="16" fill="#666" x="0" y="15" xml:space="preserve">New Distributed ML Architectures </tspan>
          <tspan font-family="Helvetica Neue" font-size="13" fill="#666" x="0" y="31.447998" xml:space="preserve">[</tspan>
          <tspan font-family="Helvetica Neue" font-size="13" fill="#04cd67" y="31.447998" xml:space="preserve">AAAI’24, Network’21,</tspan>
          <tspan font-family="Helvetica Neue" font-size="13" fill="#666" y="31.447998" xml:space="preserve"> INFOCOM’19]</tspan>
        </text>
      </g>
      <g id="Group_147">
        <g id="Graphic_139">
          <rect x="110.63577" y="340.7644" width="4.8642293" height="33.073674" fill="#999"/>
        </g>
        <g id="Graphic_138">
          <rect x="110.5" y="358.158" width="4.8642293" height="15.902716" fill="#04cd66"/>
        </g>
      </g>
      <g id="Graphic_141">
        <circle cx="549.8787" cy="507.8742" r="5.00000798950947" fill="white"/>
        <path d="M 553.41424 504.33866 C 555.3669 506.2913 555.3669 509.4571 553.41424 511.4097 C 551.4616 513.36235 548.2958 513.36235 546.3432 511.4097 C 544.39055 509.4571 544.39055 506.2913 546.3432 504.33866 C 548.2958 502.38603 551.4616 502.38603 553.41424 504.33866" stroke="#c62f23" stroke-linecap="round" stroke-linejoin="miter" stroke-dasharray="3.0,3.0" stroke-width="1.5"/>
      </g>
      <g id="Line_152">
        <path d="M 430 572.9985 L 430 646.648 C 430 652.17084 434.47715 656.648 440 656.648 L 532.41513 656.648" stroke="#c62f24" stroke-linecap="round" stroke-linejoin="round" stroke-width="2"/>
      </g>
      <g id="Graphic_156">
        <text transform="translate(610.8787 647.6362)" fill="black">
          <tspan font-family="Helvetica Neue" font-size="16" fill="black" x="0" y="15" xml:space="preserve">AI for Additive Manufacturing</tspan>
        </text>
      </g>
      <g id="Graphic_155">
        <rect x="601" y="648.8602" width="5" height="30.05766" fill="#f26077"/>
      </g>
      <g id="Graphic_158">
        <rect x="601" y="670.82126" width="5" height="19.14361" fill="#04cd66"/>
      </g>
      <g id="Graphic_159">
        <rect x="601" y="572.9782" width="5" height="38.85542" fill="#04cd66"/>
      </g>
      <g id="Group_1992">
        <g id="Graphic_96">
          <rect x="601" y="491.2362" width="5" height="36.41961" fill="#f26077"/>
        </g>
        <g id="Graphic_160">
          <rect x="601" y="510.1443" width="5" height="17.511532" fill="#04cd66"/>
        </g>
      </g>
      <g id="Graphic_48">
        <text transform="translate(611.43804 418.91364)" fill="black">
          <tspan font-family="Helvetica Neue" font-size="16" fill="black" x="0" y="15" xml:space="preserve">Large Language Model Systems</tspan>
        </text>
      </g>
      <g id="Graphic_157">
        <text transform="translate(611.5 437.74057)" fill="black">
          <tspan font-family="Helvetica Neue" font-size="16" fill="black" x="0" y="15" xml:space="preserve">Sustainable AI</tspan>
        </text>
      </g>
      <g id="Graphic_165">
        <rect x="601" y="432.74057" width="5" height="21.699502" fill="#04cd66"/>
      </g>
      <g id="Graphic_167">
        <circle cx="507.8033" cy="446.64036" r="5.00000798950948" fill="white"/>
        <circle cx="507.8033" cy="446.64036" r="5.00000798950948" stroke="#c62f23" stroke-linecap="round" stroke-linejoin="miter" stroke-width="1.5"/>
      </g>
      <g id="Graphic_171">
        <circle cx="496.6916" cy="656.648" r="5.00000798950947" fill="#c72f24"/>
      </g>
      <g id="Graphic_172">
        <rect x="367.34146" y="672.5958" width="5" height="33.276" fill="#04cd66"/>
      </g>
      <g id="Line_174">
        <line x1="496.6916" y1="661.648" x2="496.6916" y2="672.5958" stroke="#c62f24" stroke-linecap="round" stroke-linejoin="round" stroke-width="1"/>
      </g>
      <g id="Line_177">
        <line x1="534.8366" y1="656.648" x2="579.31204" y2="656.648" marker-end="url(#FilledArrow_Marker_3)" stroke="#c62f24" stroke-linecap="round" stroke-linejoin="round" stroke-dasharray="4.0,4.0" stroke-width="2"/>
      </g>
      <g id="Graphic_176">
        <circle cx="559.52106" cy="656.648" r="5.00000798950946" fill="white"/>
        <path d="M 563.0566 653.1125 C 565.0092 655.0651 565.0092 658.2309 563.0566 660.1835 C 561.104 662.13615 557.93815 662.13615 555.9855 660.1835 C 554.0329 658.2309 554.0329 655.0651 555.9855 653.1125 C 557.93815 651.1598 561.104 651.1598 563.0566 653.1125" stroke="#c62f23" stroke-linecap="round" stroke-linejoin="miter" stroke-dasharray="3.0,3.0" stroke-width="1.5"/>
      </g>
      <g id="Graphic_178">
        <rect x="600.98305" y="571.91045" width="5" height="15.14361" fill="#f26077"/>
      </g>
      <g id="Group_1988">
        <g id="Graphic_1984">
          <path d="M 616.5 508.584 L 856.8527 508.584 C 859.6141 508.584 861.8527 510.8226 861.8527 513.584 L 861.8527 522.584 C 861.8527 525.3454 859.6141 527.584 856.8527 527.584 L 616.5 527.584 C 613.7386 527.584 611.5 525.3454 611.5 522.584 L 611.5 513.584 C 611.5 510.8226 613.7386 508.584 616.5 508.584 Z" fill="#04cd66"/>
        </g>
        <g id="Graphic_1983">
          <text transform="translate(655.78384 509.89545)" fill="white">
            <tspan font-family="Helvetica Neue" font-weight="bold" font-size="13" fill="white" x="0" y="13" xml:space="preserve">funded by NSF RII Track-4</tspan>
          </text>
        </g>
      </g>
      <g id="Group_1987">
        <g id="Graphic_1985">
          <path d="M 616.5 323.33513 L 856.8527 323.33513 C 859.6141 323.33513 861.8527 325.5737 861.8527 328.33513 L 861.8527 337.33513 C 861.8527 340.09655 859.6141 342.33513 856.8527 342.33513 L 616.5 342.33513 C 613.7386 342.33513 611.5 340.09655 611.5 337.33513 L 611.5 328.33513 C 611.5 325.5737 613.7386 323.33513 616.5 323.33513 Z" fill="#04cd66"/>
        </g>
        <g id="Graphic_1982">
          <text transform="translate(668.62884 324.6466)" fill="white">
            <tspan font-family="Helvetica Neue" font-weight="bold" font-size="13" fill="white" x="5897505e-19" y="13" xml:space="preserve">funded by NSF CRII</tspan>
          </text>
        </g>
      </g>
      <g id="Group_1989">
        <g id="Graphic_1981">
          <path d="M 616.5 589.5708 L 824.0689 589.5708 C 826.8303 589.5708 829.0689 591.80935 829.0689 594.5708 L 829.0689 603.5708 C 829.0689 606.3322 826.8303 608.5708 824.0689 608.5708 L 616.5 608.5708 C 613.7386 608.5708 611.5 606.3322 611.5 603.5708 L 611.5 594.5708 C 611.5 591.80935 613.7386 589.5708 616.5 589.5708 Z" fill="#04cd66"/>
        </g>
        <g id="Graphic_1980">
          <text transform="translate(621.3154 590.8822)" fill="white">
            <tspan font-family="Helvetica Neue" font-weight="bold" font-size="13" fill="white" x="0" y="13" xml:space="preserve">funded by two NSF SaTC grants</tspan>
          </text>
        </g>
      </g>
      <g id="Group_1990">
        <g id="Graphic_1979">
          <path d="M 616.5 670.5098 L 949.5 670.5098 C 952.2614 670.5098 954.5 672.7484 954.5 675.5098 L 954.5 684.5098 C 954.5 687.2712 952.2614 689.5098 949.5 689.5098 L 616.5 689.5098 C 613.7386 689.5098 611.5 687.2712 611.5 684.5098 L 611.5 675.5098 C 611.5 672.7484 613.7386 670.5098 616.5 670.5098 Z" fill="#04cd66"/>
        </g>
        <g id="Graphic_1978">
          <text transform="translate(645.5494 671.82126)" fill="white">
            <tspan font-family="Helvetica Neue" font-weight="bold" font-size="13" fill="white" x="0" y="13" xml:space="preserve">funded by Louisiana Materials Design Alliance</tspan>
          </text>
        </g>
      </g>
      <g id="Graphic_1993">
        <rect x="601" y="420.29764" width="5" height="16" fill="#f26077"/>
      </g>
      <g id="Group_2239">
        <g id="Graphic_2241">
          <path d="M 616.5 372.16125 L 856.8527 372.16125 C 859.6141 372.16125 861.8527 374.39983 861.8527 377.16125 L 861.8527 386.16125 C 861.8527 388.92268 859.6141 391.16125 856.8527 391.16125 L 616.5 391.16125 C 613.7386 391.16125 611.5 388.92268 611.5 386.16125 L 611.5 377.16125 C 611.5 374.39983 613.7386 372.16125 616.5 372.16125 Z" fill="#04cd66"/>
        </g>
        <g id="Graphic_2240">
          <text transform="translate(667.64734 373.4727)" fill="white">
            <tspan font-family="Helvetica Neue" font-weight="bold" font-size="13" fill="white" x="45474735e-20" y="13" xml:space="preserve">funded by NSF OAC</tspan>
          </text>
        </g>
      </g>
      <g id="Group_2242">
        <g id="Graphic_2244">
          <rect x="601.21064" y="353.303" width="5" height="36.41961" fill="#f26077"/>
        </g>
        <g id="Graphic_2243">
          <rect x="601.21064" y="372.21107" width="5" height="17.511532" fill="#04cd66"/>
        </g>
      </g>
      <g id="Group_2245">
        <g id="Graphic_2247">
          <path d="M 616.5 460.872 L 856.8527 460.872 C 859.6141 460.872 861.8527 463.1106 861.8527 465.872 L 861.8527 474.872 C 861.8527 477.63344 859.6141 479.872 856.8527 479.872 L 616.5 479.872 C 613.7386 479.872 611.5 477.63344 611.5 474.872 L 611.5 465.872 C 611.5 463.1106 613.7386 460.872 616.5 460.872 Z" fill="#04cd66"/>
        </g>
        <g id="Graphic_2246">
          <text transform="translate(641.41984 462.18347)" fill="white">
            <tspan font-family="Helvetica Neue" font-weight="bold" font-size="13" fill="white" x="0" y="13" xml:space="preserve">funded by NSF CSR Medium</tspan>
          </text>
        </g>
      </g>
      <g id="Graphic_2253">
        <text transform="translate(610.86176 706.8867)" fill="black">
          <tspan font-family="Helvetica Neue" font-size="16" fill="black" x="0" y="15" xml:space="preserve">Bias Assessment in ML Models for Opioid Prescribing</tspan>
        </text>
      </g>
      <g id="Graphic_2252">
        <rect x="600.98305" y="708.1107" width="5" height="30.05766" fill="#f26077"/>
      </g>
      <g id="Graphic_2251">
        <rect x="600.98305" y="730.0718" width="5" height="19.14361" fill="#04cd66"/>
      </g>
      <g id="Group_2248">
        <g id="Graphic_2250">
          <path d="M 616.48305 729.76035 L 839.5334 729.76035 C 842.2948 729.76035 844.5334 731.9989 844.5334 734.76035 L 844.5334 743.76035 C 844.5334 746.5218 842.2948 748.76035 839.5334 748.76035 L 616.48305 748.76035 C 613.7216 748.76035 611.48305 746.5218 611.48305 743.76035 L 611.48305 734.76035 C 611.48305 731.9989 613.7216 729.76035 616.48305 729.76035 Z" fill="#04cd66"/>
        </g>
        <g id="Graphic_2249">
          <text transform="translate(645.5325 731.0718)" fill="white">
            <tspan font-family="Helvetica Neue" font-weight="bold" font-size="13" fill="white" x="0" y="13" xml:space="preserve">funded by NIH AIM-AHEAD</tspan>
          </text>
        </g>
      </g>
      <g id="Line_2257">
        <path d="M 430 642.6362 L 430 716.28565 C 430 721.8085 434.47715 726.28565 440 726.28565 L 532.41513 726.28565" stroke="#c62f24" stroke-linecap="round" stroke-linejoin="round" stroke-width="2"/>
      </g>
      <g id="Line_2255">
        <line x1="534.8366" y1="726.28565" x2="579.31204" y2="726.28565" marker-end="url(#FilledArrow_Marker_3)" stroke="#c62f24" stroke-linecap="round" stroke-linejoin="round" stroke-dasharray="4.0,4.0" stroke-width="2"/>
      </g>
      <g id="Graphic_2254">
        <circle cx="559.52106" cy="726.28565" r="5.00000798950948" fill="white"/>
        <path d="M 563.0566 722.7501 C 565.0092 724.7027 565.0092 727.8686 563.0566 729.8212 C 561.104 731.7738 557.93815 731.7738 555.9855 729.8212 C 554.0329 727.8686 554.0329 724.7027 555.9855 722.7501 C 557.93815 720.7975 561.104 720.7975 563.0566 722.7501" stroke="#c62f23" stroke-linecap="round" stroke-linejoin="miter" stroke-dasharray="3.0,3.0" stroke-width="1.5"/>
      </g>
      <g id="Graphic_173">
        <rect x="372.7201" y="666.82126" width="224.27988" height="44.82509" fill="white"/>
        <text transform="translate(377.7201 671.82126)" fill="#04cd66">
          <tspan font-family="Helvetica Neue" font-size="16" fill="#04cd66" x="0" y="15" xml:space="preserve">AI for Material Quality Control</tspan>
          <tspan font-family="Helvetica Neue" font-size="13" fill="#04cd66" x="0" y="31.447998" xml:space="preserve">[NeurIPS’23-AI4Mat]</tspan>
        </text>
      </g>
    </g>
  </g>
</svg>
