<?xml version="1.0" encoding="UTF-8"?><svg id="main" xmlns="http://www.w3.org/2000/svg" viewBox="0 0 460 120.89"><defs><style>.cls-1{fill:#7e8082;}.cls-1,.cls-2{stroke-width:0px;}.cls-2{fill:#b30838;}</style></defs><path class="cls-1" d="M1.13,120.52h3.86v-19.62H1.13v19.62ZM26.41,120.52h3.86v-19.62h-3.86v12.91l-8.98-12.91h-4.6v.26l1.36,2.17v17.19h3.86v-11.73l8.35,11.73h0ZM49.22,101.46c-1.18-.52-2.69-.92-4.2-.92-5,0-6.73,2.95-6.73,5.63,0,2.21.77,3.83,3.35,5.26l2.95,1.84c.96.58,1.47,1.29,1.47,2.03,0,1.07-.88,1.95-2.57,1.95-1.87,0-3.75-.84-4.78-1.69v4.3c1.21.52,2.97,1.03,4.92,1.03,4.49,0,6.55-2.75,6.55-5.81,0-2.17-.92-3.94-3.53-5.37l-2.97-1.77c-.81-.52-1.21-1.07-1.21-1.84,0-1.03.81-1.91,2.39-1.91s3.39.7,4.38,1.43v-4.16h-.01ZM61.03,120.52h3.86v-15.89h4.82l.61-3.72h-14.11v3.72h4.82v15.89ZM77,120.52h3.86v-19.62h-3.86v19.62ZM119.75,100.9v12.61c0,2.09-1.36,3.61-3.57,3.61s-3.57-1.51-3.57-3.61v-12.61h-3.86v12.33c0,4.78,2.87,7.65,7.43,7.65s7.43-2.87,7.43-7.65v-12.33h-3.86ZM162.57,120.52l.61-3.72h-7.86v-4.73h5.56v-3.72h-5.56v-3.73h7.86l-.61-3.72h-11.11v19.62h11.11ZM191.25,100.54c-5.78,0-10.16,4.38-10.16,10.18s4.38,10.16,10.16,10.16,10.18-4.38,10.18-10.16-4.42-10.18-10.18-10.18ZM191.25,116.98c-3.49,0-6.18-2.75-6.18-6.25s2.69-6.29,6.18-6.29,6.18,2.75,6.18,6.29-2.65,6.25-6.18,6.25ZM220.3,112.07v-3.72h-6.66v-3.73h7.25l.61-3.72h-11.72v19.62h3.86v-8.44h6.66ZM293.52,115.4c-1.03.92-2.69,1.58-4.6,1.58-3.53,0-6.14-2.75-6.14-6.25s2.65-6.29,6.14-6.29c1.91,0,3.53.62,4.6,1.62v-4.46c-1.29-.7-2.91-1.07-4.56-1.07-5.78,0-10.16,4.38-10.16,10.18s4.38,10.16,10.16,10.16c1.65,0,3.27-.4,4.56-1.07v-4.42h0ZM314.71,120.52h3.86v-19.62h-3.86v7.87h-9.31v-7.87h-3.86v19.62h3.86v-8.02h9.31v8.02ZM326.22,100.9l1.52,2.43v17.19h3.86v-11.73l8.35,11.73h3.86v-19.62h-3.86v12.91l-8.98-12.91h-4.75ZM360.54,100.54c-5.78,0-10.16,4.38-10.16,10.18s4.38,10.16,10.16,10.16,10.18-4.38,10.18-10.16-4.42-10.18-10.18-10.18ZM360.54,116.98c-3.49,0-6.18-2.75-6.18-6.25s2.69-6.29,6.18-6.29,6.18,2.75,6.18,6.29-2.65,6.25-6.18,6.25ZM388.41,120.52l.61-3.72h-7.86v-15.89h-3.86v19.62h11.11ZM404.11,100.54c-5.78,0-10.16,4.38-10.16,10.18s4.38,10.16,10.16,10.16,10.2-4.38,10.2-10.16-4.42-10.18-10.2-10.18ZM404.11,116.98c-3.49,0-6.18-2.75-6.18-6.25s2.69-6.29,6.18-6.29,6.18,2.75,6.18,6.29-2.65,6.25-6.18,6.25ZM449.27,120.52h3.86v-6.73l6.87-12.87h-4.34l-4.48,9.02-4.46-9.02h-4.38l6.91,12.84v6.77h.01ZM437.98,118.63v-8.41h-7.4v3.55h3.43v2.64c-.58.34-1.49.52-2.73.52s-2.42-.25-3.42-.73c-1-.48-1.78-1.18-2.34-2.09s-.83-1.97-.83-3.2c0-2.13.57-3.73,1.71-4.81s2.79-1.62,4.96-1.62c.61,0,1.38.12,2.29.36s1.62.51,2.14.79l1.27-3.65c-.81-.43-1.74-.78-2.81-1.05-1.07-.27-2.2-.4-3.4-.4-1.87,0-3.59.4-5.13,1.21s-2.78,2.01-3.7,3.62c-.92,1.61-1.38,3.59-1.38,5.9,0,1.86.43,3.51,1.3,4.96.87,1.45,2.09,2.59,3.69,3.4,1.6.82,3.44,1.23,5.55,1.23.78,0,1.64-.12,2.59-.34.95-.22,1.81-.52,2.6-.87.78-.35,1.33-.69,1.64-1.01h-.03ZM93,120.52h3.86v-15.89h4.82l.61-3.72h-14.11v3.72h4.82v15.89h0ZM135.5,120.52h3.86v-15.89h4.82l.61-3.72h-14.11v3.72h4.82v15.89h0ZM244.23,120.52h3.86v-15.89h4.82l.61-3.72h-14.11v3.72h4.82v15.89h0ZM271.97,120.52l.61-3.72h-7.86v-4.73h5.56v-3.72h-5.56v-3.73h7.86l-.61-3.72h-11.11v19.62h11.11Z"/><polygon class="cls-2" points="56.07 1.23 120.26 1.23 118.09 14.52 94 14.52 94 78.43 80.15 78.43 80.15 14.52 56.07 14.52 56.07 1.23"/><path class="cls-2" d="M32.4,36.57l-11.64-7.27c-4.11-2.55-6.01-5.11-6.01-8.04,0-4.98,4.12-8.08,10.76-8.08,5.5,0,11.86,2.2,16.23,5.6l.87.68V4.13l-.3-.16c-3.62-1.82-9.44-3.98-16.58-3.98C6.76,0,0,11.21,0,21.7c0,8.94,3.79,14.98,12.68,20.16l11.86,7.27c4.7,2.88,6.79,5.61,6.79,8.83,0,5.18-4.4,8.52-11.21,8.52-7.44,0-14.41-3.49-18.12-6.48l-.88-.71v15.8l.3.14c3.38,1.65,10.38,4.42,19.27,4.42,12.64,0,25.38-6.91,25.38-22.36,0-8.78-4.09-14.98-13.68-20.72h.01Z"/><polygon class="cls-2" points="178.77 14.52 176.6 1.23 133.65 1.23 133.65 78.43 177.68 78.43 179.85 65.14 147.5 65.14 147.5 43.79 169.79 43.79 169.79 30.52 147.5 30.52 147.5 14.52 178.77 14.52"/><polygon class="cls-2" points="318.29 14.52 316.12 1.23 273.19 1.23 273.19 78.43 317.2 78.43 319.37 65.14 287.02 65.14 287.02 43.79 309.32 43.79 309.32 30.52 287.02 30.52 287.02 14.52 318.29 14.52"/><polygon class="cls-2" points="225.1 61.36 207.49 1.23 192.11 1.23 217.55 78.43 232.51 78.43 257.95 1.23 242.58 1.23 225.1 61.36"/><path class="cls-2" d="M446.32,36.57l-11.64-7.27c-4.11-2.55-6.01-5.11-6.01-8.04,0-4.98,4.12-8.08,10.76-8.08,5.5,0,11.86,2.2,16.23,5.6l.87.68V4.13l-.3-.16c-3.62-1.82-9.44-3.98-16.58-3.98-18.97,0-25.72,11.21-25.72,21.7,0,8.94,3.79,14.98,12.68,20.16l11.86,7.27c4.7,2.88,6.79,5.6,6.79,8.83,0,5.18-4.4,8.52-11.21,8.52-7.44,0-14.41-3.49-18.12-6.48l-.88-.71v15.8l.3.14c3.38,1.65,10.38,4.42,19.27,4.42,12.64,0,25.38-6.91,25.38-22.36,0-8.78-4.09-14.98-13.68-20.72h.01Z"/><polygon class="cls-2" points="382.63 1.23 382.63 52.2 352.86 1.23 334.6 1.23 340.85 11 340.85 78.43 354.68 78.43 354.68 30.31 382.89 78.43 396.46 78.43 396.46 1.23 382.63 1.23"/></svg>